<svg width="521" height="123" viewBox="0 0 521 123" fill="none" xmlns="http://www.w3.org/2000/svg">
<path d="M15.231 122C14.4051 121.974 13.5947 121.769 12.8554 121.401C5.8854 118.313 1.46062 113.18 1.02988 107.669C0.878258 105.6 1.30573 103.53 2.26455 101.689C3.22337 99.8489 4.67585 98.3107 6.45976 97.2464C9.07025 95.5658 15.0091 93.1165 25.5425 95.3313C27.5656 91.7355 29.7976 87.6056 32.2123 82.9936C29.5825 80.9512 27.1684 78.6463 25.0074 76.1147C11.485 60.2203 11.9548 39.3099 26.1037 20.1715C37.8509 4.43344 59.4267 -2.56269 79.9321 2.76585C101.704 8.43312 116.597 26.5814 119.781 51.2959C121.13 61.8673 120.196 72.6044 117.04 82.7851C123.632 80.5879 130.043 77.8828 136.214 74.6945C136.423 74.5956 136.642 74.5214 136.867 74.4731C142.39 68.3773 149.62 64.0789 157.62 62.1355C164.969 60.2464 170.79 60.9759 174.928 64.3111C180.306 68.6495 180.214 75.4241 180.149 76.1928C180.124 76.8458 179.97 77.4873 179.694 78.0801C179.418 78.6728 179.027 79.2049 178.544 79.6453C178.075 80.089 177.521 80.4332 176.915 80.6571C176.309 80.881 175.665 80.98 175.019 80.9481C173.726 80.8905 172.506 80.3288 171.623 79.3837C170.739 78.4386 170.262 77.1854 170.294 75.8932C170.285 74.4272 169.699 73.0235 168.663 71.9847C167.136 70.7861 164.068 70.6819 160.022 71.7112C148.758 74.6034 141.918 81.7299 140.992 87.345C140.744 88.5266 140.885 89.7566 141.396 90.851C141.906 91.9453 142.758 92.8453 143.824 93.4162C149.28 97.012 158.965 89.7944 162.802 85.7556C163.541 84.9806 164.513 84.4668 165.571 84.2922C166.628 84.1175 167.714 84.2915 168.664 84.7876C169.613 85.2836 170.375 86.0748 170.834 87.0416C171.294 88.0084 171.425 89.0983 171.208 90.1461C170.908 91.6053 170.529 96.3606 172.657 98.9532C173.962 100.517 176.207 101.298 179.418 101.298C191.257 101.298 225.01 82.9155 237.332 75.6587L237.449 75.4372C237.578 75.1814 237.722 74.9333 237.88 74.6945C246.025 62.6174 266.243 54.579 277.22 59.0607C280.301 60.3635 287.205 64.5065 285.052 75.9973C284.795 77.2836 284.04 78.4167 282.95 79.1502C282.418 79.5126 281.819 79.7664 281.187 79.897C280.556 80.0277 279.906 80.0327 279.272 79.9117C278.639 79.7906 278.036 79.546 277.498 79.1917C276.96 78.8375 276.498 78.3806 276.137 77.8474C275.769 77.3149 275.512 76.7146 275.379 76.0815C275.247 75.4484 275.243 74.7953 275.367 74.1605C276.294 69.2879 274.414 68.5193 273.513 68.1414C266.204 65.1319 251.168 72.6231 246.103 80.1534C242.631 85.3647 243.219 89.9375 247.944 94.7449C256.206 103.135 288.302 88.4914 308.455 75.4111L308.625 75.32L308.781 75.2026C313.323 72.7533 318.088 69.9915 322.969 67.1774C337.431 39.9615 358.394 6.66127 376.328 1.94506C378.758 1.22894 381.323 1.09162 383.817 1.54414C386.31 1.99665 388.663 3.0264 390.685 4.55071C392.499 5.797 393.951 7.49882 394.895 9.48431C395.84 11.4698 396.242 13.6688 396.063 15.8593C394.758 33.3171 354.608 59.7773 330.579 74.0822L329.822 75.5024C335.186 71.5158 339.99 69.4442 344.179 69.3399C346.199 69.2561 348.208 69.6698 350.029 70.5446C351.85 71.4194 353.427 72.7284 354.621 74.3559C359.842 80.87 355.6 88.765 352.233 95.0837C347.338 104.203 346.503 107.643 350.771 110.861C354.791 113.883 364.319 110.731 377.581 101.963C390.417 93.2026 402.395 83.2528 413.358 72.2454C413.783 71.8163 414.283 71.4675 414.832 71.2161C419.879 66.8715 425.88 63.7739 432.349 62.1744C439.697 60.2853 445.519 61.015 449.656 64.3502C455.034 68.6886 454.943 75.4632 454.877 76.2319C454.853 76.8849 454.698 77.5265 454.422 78.1192C454.147 78.7119 453.756 79.244 453.272 79.6844C452.802 80.1263 452.248 80.4692 451.643 80.693C451.037 80.9168 450.393 81.0169 449.748 80.9872C448.454 80.9297 447.235 80.3679 446.351 79.4228C445.468 78.4777 444.991 77.2245 445.023 75.9323C445.014 74.4663 444.428 73.0627 443.391 72.0238C441.864 70.8252 438.797 70.7211 434.764 71.7503C423.486 74.6425 416.647 81.769 415.72 87.3841C415.473 88.5671 415.617 89.7981 416.13 90.8926C416.643 91.9872 417.497 92.8862 418.566 93.4552C425.366 97.9238 437.048 86.2766 437.544 85.7815C438.285 85.0107 439.256 84.5012 440.313 84.3298C441.369 84.1585 442.453 84.3346 443.4 84.8316C444.347 85.3286 445.107 86.1196 445.565 87.0853C446.022 88.051 446.153 89.1389 445.937 90.1851C445.636 91.6442 445.271 96.3995 447.385 98.9921C448.691 100.556 450.936 101.337 454.147 101.337C466.181 101.337 500.418 82.6027 512.582 75.385C513.707 74.7312 515.045 74.5472 516.304 74.8733C517.564 75.1993 518.644 76.0088 519.308 77.1257C519.973 78.2426 520.168 79.5762 519.852 80.8363C519.536 82.0964 518.734 83.1808 517.621 83.8534C512.896 86.6414 471.023 111.213 454.16 111.213C447.803 111.213 442.948 109.193 439.711 105.207C438.3 103.429 437.261 101.387 436.656 99.2006C430.13 103.487 421.189 107.018 413.162 101.715C409.779 99.5909 407.319 96.2754 406.27 92.426C390.672 106.106 369.475 121.831 354.452 121.831C351.001 121.927 347.614 120.883 344.819 118.86C333.137 110.092 339.598 97.8979 343.514 90.6151C345.55 86.8109 348.069 82.0815 346.868 80.5833C346.603 80.1672 346.234 79.828 345.796 79.5993C345.359 79.3707 344.869 79.2607 344.375 79.2805C337.027 79.4629 322.891 94.7711 315.19 105.571C314.475 106.547 313.426 107.226 312.242 107.48C311.059 107.733 309.823 107.543 308.77 106.946C307.717 106.349 306.921 105.387 306.533 104.242C306.146 103.097 306.193 101.85 306.667 100.738C307.789 98.1324 310.674 91.7615 314.864 83.202L313.754 83.8143C304.64 89.488 295.141 94.5205 285.326 98.8749C273.396 104.086 263.424 106.809 255.684 106.809C249.353 106.809 244.38 105.024 240.908 101.507C237.322 98.0671 234.984 93.5339 234.265 88.6217C218.693 97.3116 192.196 110.978 179.444 110.978C173.088 110.978 168.232 108.959 164.995 104.972C163.584 103.195 162.546 101.152 161.941 98.9661C155.415 103.252 146.474 106.783 138.446 101.481C136.136 100.055 134.241 98.048 132.954 95.6605C131.666 93.273 131.03 90.5894 131.111 87.8792C124.981 90.5134 118.663 92.6908 112.211 94.3933C108.331 102.026 102.645 108.599 95.6473 113.545C85.2054 120.684 67.2581 126.247 41.8189 112.242C38.0484 110.14 34.121 108.333 30.0716 106.835C21.6528 120.254 17.711 122 15.231 122ZM17.6196 96.3735C14.0847 96.2146 10.5797 97.0837 7.53007 98.8749C6.04185 99.7493 4.82799 101.021 4.0254 102.548C3.22282 104.074 2.8634 105.793 2.98775 107.513C3.35322 112.307 7.34734 116.828 13.6517 119.616C14.1419 119.869 14.6801 120.015 15.231 120.046C18.1025 120.046 22.697 115.043 28.8708 105.168L29.2885 104.503L30.0325 104.764C34.4313 106.338 38.6922 108.273 42.7718 110.548C67.3365 124.071 84.5396 118.769 94.5509 111.942C101.395 107.089 106.936 100.628 110.684 93.1295L110.88 92.7387L111.31 92.6344C118.332 90.8026 125.194 88.4063 131.829 85.4689L133.408 84.7785L133.186 86.4981C132.829 89.1022 133.239 91.7535 134.366 94.1292C135.492 96.5048 137.286 98.5023 139.53 99.8781C147.152 104.881 155.963 100.855 162.019 96.595L163.233 95.7351L163.533 97.1943C164.005 99.574 165.039 101.807 166.548 103.708C169.394 107.226 173.74 108.998 179.457 108.998C192.588 108.998 222.413 93.0122 234.63 86.1464L236.027 85.3517V86.9541C236.371 91.9629 238.588 96.6596 242.24 100.113C245.333 103.252 249.836 104.829 255.618 104.829C263.084 104.829 272.795 102.223 284.477 97.0118C294.18 92.6462 303.558 87.5958 312.54 81.8991L312.71 81.808L316.547 79.6975L319.301 78.147L317.905 80.9742C312.984 90.8887 309.59 98.4451 308.35 101.233C308.061 101.905 308.029 102.659 308.262 103.352C308.495 104.046 308.976 104.629 309.613 104.99C310.25 105.351 310.998 105.466 311.714 105.311C312.429 105.156 313.063 104.743 313.493 104.151C318.805 96.6863 334.677 77.2742 344.206 77.0397C345.003 77.0099 345.795 77.179 346.511 77.5316C347.226 77.8841 347.843 78.4092 348.304 79.0591C350.288 81.5605 347.795 86.2506 345.145 91.2144C341.099 98.8098 335.565 109.219 345.902 116.984C348.356 118.762 351.33 119.678 354.36 119.59C370.023 119.59 393.518 100.764 406.166 89.5467L407.536 88.3221L407.784 90.1461C408.069 92.1223 408.786 94.0116 409.885 95.6801C410.983 97.3485 412.436 98.755 414.141 99.7999C421.763 104.803 430.574 100.777 436.63 96.5168L437.844 95.6701L438.144 97.1162C438.616 99.4959 439.65 101.729 441.159 103.63C444.005 107.148 448.351 108.92 454.068 108.92C470.423 108.92 511.865 84.635 516.537 81.8731C517.215 81.4717 517.706 80.8183 517.902 80.0562C518.097 79.2942 517.982 78.4857 517.582 77.8083C517.384 77.472 517.121 77.178 516.809 76.9434C516.497 76.7088 516.141 76.5382 515.763 76.4414C515.384 76.3445 514.99 76.3233 514.603 76.379C514.217 76.4347 513.845 76.5663 513.509 76.7661C501.201 84.0619 466.52 102.992 454.081 102.992C450.244 102.992 447.464 101.963 445.793 99.9303C442.634 96.0218 443.926 89.5077 443.94 89.5077C444.075 88.875 444 88.2154 443.726 87.6292C443.451 87.043 442.993 86.5622 442.42 86.2599C441.846 85.9577 441.19 85.8504 440.55 85.9546C439.911 86.0587 439.322 86.3685 438.875 86.8369C437.505 88.2309 425.405 100.047 417.404 94.8102C416.02 94.0274 414.919 92.8295 414.256 91.3866C413.593 89.9437 413.402 88.329 413.71 86.7717C414.741 80.5963 422.116 72.7144 434.189 69.6267C438.914 68.4281 442.478 68.6365 444.527 70.252C445.282 70.9571 445.884 71.8107 446.293 72.7592C446.701 73.7077 446.909 74.7304 446.902 75.7629C446.881 76.5442 447.169 77.3025 447.705 77.8732C448.24 78.4438 448.978 78.7809 449.761 78.8115C450.146 78.8338 450.532 78.7785 450.895 78.6486C451.259 78.5188 451.592 78.3172 451.875 78.0559C452.169 77.7912 452.406 77.4702 452.571 77.112C452.737 76.7538 452.829 76.3659 452.841 75.9714C452.887 74.0314 452.506 72.1049 451.723 70.3285C450.94 68.5521 449.776 66.9694 448.312 65.6921C444.683 62.7608 439.436 62.1615 432.727 63.8812C426.513 65.4381 420.75 68.4277 415.903 72.61L415.616 72.7794C415.244 72.9326 414.907 73.1586 414.624 73.4439C395.254 92.8168 360.43 120.476 349.479 112.229C343.488 107.734 345.928 102.367 350.392 93.9894C353.656 87.8661 357.349 80.9611 353.003 75.385C351.998 73.9878 350.657 72.8653 349.104 72.1208C347.551 71.3764 345.835 71.0338 344.114 71.1248C339.507 71.229 333.881 74.1343 327.381 79.7495L323.57 83.0456L325.867 78.577C326.85 76.6663 327.859 74.7293 328.895 72.7664L329.026 72.5189L329.26 72.3756C384.42 39.5576 393.518 22.686 394.027 15.5466C394.176 13.684 393.83 11.815 393.023 10.1289C392.217 8.44276 390.978 6.99938 389.432 5.94481C387.651 4.60551 385.582 3.6986 383.389 3.29607C381.196 2.89355 378.939 3.00644 376.798 3.62575C359.49 8.1726 338.828 41.2121 324.588 68.1284L324.457 68.3759L324.222 68.5061C319.275 71.4244 314.433 74.1734 309.865 76.6748L309.669 76.8052L309.486 76.8964C298.3 84.14 271.542 99.0443 255.84 99.0443C251.925 99.0443 248.727 98.1324 246.599 95.9697C241.261 90.5499 240.556 84.8046 244.524 78.9158C251.181 69.0404 267.209 63.2819 274.31 66.2003C276.137 66.9429 278.447 68.6104 277.338 74.3819C277.193 75.1573 277.362 75.9584 277.808 76.6098C278.021 76.9442 278.299 77.2321 278.627 77.456C278.954 77.6799 279.324 77.8353 279.713 77.9126C280.09 77.9897 280.478 77.9901 280.855 77.914C281.232 77.8379 281.589 77.6867 281.906 77.4695C282.242 77.255 282.531 76.9747 282.755 76.6456C282.98 76.3164 283.135 75.9451 283.211 75.5544C285.143 65.4576 279.296 61.8618 276.607 60.7805C266.348 56.5854 247.343 64.2459 239.629 75.6847C239.512 75.8671 239.407 76.0626 239.303 76.258L239.016 76.7792L238.885 76.9875L238.676 77.1049C238.232 77.3654 194.428 103.161 179.562 103.161C175.724 103.161 172.944 102.132 171.273 100.1C168.115 96.1911 169.407 89.677 169.42 89.677C169.555 89.0443 169.48 88.3848 169.206 87.7986C168.932 87.2124 168.473 86.7315 167.9 86.4293C167.327 86.127 166.67 86.0198 166.031 86.1239C165.391 86.2281 164.803 86.5379 164.355 87.0063C160.779 90.7975 149.933 99.6045 142.884 94.9795C141.499 94.1982 140.397 93.0006 139.733 91.5572C139.07 90.1139 138.88 88.4985 139.19 86.9411C140.222 80.7657 147.583 72.8837 159.67 69.7961C164.382 68.5844 167.958 68.8059 170.007 70.4214C170.763 71.1265 171.364 71.9801 171.773 72.9286C172.182 73.877 172.389 74.8998 172.383 75.9323C172.358 76.7146 172.645 77.4746 173.181 78.046C173.717 78.6175 174.458 78.9537 175.241 78.9808C175.626 79.0024 176.012 78.9467 176.375 78.8169C176.738 78.6871 177.072 78.4859 177.356 78.2253C177.941 77.6852 178.288 76.9357 178.322 76.1408C178.368 74.2008 177.986 72.2742 177.203 70.4979C176.421 68.7215 175.256 67.1388 173.792 65.8615C170.164 62.9302 164.917 62.3308 158.13 64.0506C150.415 65.9142 143.456 70.0873 138.185 76.0104L137.99 76.2449L137.702 76.323L137.389 76.4013C137.307 76.3872 137.223 76.3872 137.141 76.4013C130.301 79.9258 123.175 82.8676 115.839 85.1953L113.986 85.7685L114.613 83.9447C118.147 73.5218 119.262 62.4337 117.876 51.5174C114.782 27.6107 100.438 10.0747 79.4622 4.61591C59.7269 -0.504174 38.9343 6.19223 27.7091 21.2919C14.0693 39.6487 13.6256 59.6601 26.5214 74.8119C28.7865 77.4513 31.3289 79.8405 34.1049 81.9383L34.7575 82.4333L34.379 83.1628C31.6641 88.3741 29.158 92.9732 26.9522 96.9077L26.5867 97.533L25.8818 97.3767C23.1742 96.7339 20.4027 96.3973 17.6196 96.3735ZM15.3354 113.87L14.735 113.558C10.6496 111.421 9.04414 108.802 8.90056 107.044C8.86528 106.389 9.02019 105.738 9.34669 105.17C9.6732 104.601 10.1574 104.139 10.7409 103.839C13.1165 102.314 17.1236 101.871 21.9661 102.653L23.4018 102.875L22.6448 104.177C19.6427 109.05 17.4238 112.099 15.8314 113.466L15.3354 113.87ZM11.7982 105.493C10.7931 106.145 10.8323 106.679 10.8584 106.9C10.8584 107.786 11.9026 109.688 15.0352 111.486C16.9718 109.288 18.6938 106.91 20.1779 104.386C19.3112 104.287 18.4398 104.235 17.5674 104.23C15.5762 104.11 13.5923 104.562 11.8504 105.532L11.7982 105.493ZM71.6829 112.984C63.6296 112.984 54.8583 110.444 45.578 105.363C41.6727 103.187 37.616 101.293 33.4392 99.6957L32.3689 99.2918L32.9301 98.2887C34.9272 94.8102 37.0678 90.9017 39.2867 86.6936L39.7566 85.7946L40.6442 86.3027C56.9337 95.5527 78.3136 98.5753 100.842 94.8362L103.153 94.4453L101.847 96.3604C98.9737 100.532 95.3648 104.147 91.1964 107.031C85.4578 110.966 78.6453 113.045 71.6829 112.984ZM35.2535 98.2757C39.1388 99.822 42.9189 101.619 46.57 103.656C63.251 112.776 78.3005 113.44 90.113 105.415C93.4417 103.128 96.3885 100.332 98.8451 97.1292C77.1519 100.295 56.5943 97.2595 40.605 88.4915C38.7515 91.9961 36.9503 95.2792 35.2535 98.2757ZM82.2424 90.5499C67.6236 90.5499 54.1013 87.3188 43.3199 81.0523L42.5238 80.5833L42.9414 79.7625C49.4677 66.9427 57.0903 50.866 65.6005 31.9751C65.9007 31.2492 65.9007 30.4342 65.6005 29.7082C65.3886 29.1636 65.0204 28.6934 64.5421 28.3566C64.0638 28.0198 63.4966 27.8311 62.9115 27.8144C62.3263 27.7978 61.7493 27.9537 61.2525 28.2628C60.7557 28.5718 60.3612 29.0202 60.1185 29.5519C52.9265 45.5245 45.0429 62.0311 37.9293 76.0234L37.3811 77.1049L36.4283 76.3361C34.4513 74.7197 32.6212 72.9323 30.9593 70.9945C19.8125 57.8882 20.3345 41.0298 32.382 24.8357C42.1844 11.6642 60.4578 5.84046 77.8829 10.3743C96.6915 15.2599 109.091 30.542 111.819 52.2861C113.358 64.16 111.653 76.2282 106.885 87.2148L106.677 87.6577L106.207 87.7749C98.3423 89.5854 90.3002 90.5162 82.2294 90.5499H82.2424ZM45.1081 79.8147C61.0452 88.752 82.9603 90.9928 105.437 85.977C109.912 75.4331 111.493 63.8898 110.018 52.5337C107.329 31.6886 95.4645 16.9406 77.4652 12.2635C60.8233 7.9381 43.3591 13.462 34.0396 26.0081C22.5665 41.4335 22.0183 57.3671 32.5255 69.7178C33.8499 71.2617 35.2852 72.7072 36.8198 74.0431C43.7637 60.3114 51.3994 44.2738 58.3955 28.7442C58.9366 27.5563 59.9268 26.6305 61.1497 26.1691C62.3726 25.7077 63.7287 25.7482 64.9218 26.2818C65.5134 26.5465 66.0468 26.9252 66.4913 27.3963C66.9357 27.8675 67.2825 28.4216 67.5118 29.0269C67.741 29.6323 67.8481 30.277 67.827 30.9238C67.8059 31.5705 67.657 32.2068 67.3887 32.7959C59.0351 51.2829 51.543 67.1122 45.0951 79.8147H45.1081ZM334.664 62.2918L336.622 58.8654C348.448 38.2287 365.338 12.9018 378.39 9.46236C379.664 9.05359 381.017 8.95861 382.336 9.18548C383.654 9.41235 384.897 9.95434 385.96 10.7652C386.708 11.2207 387.313 11.8756 387.707 12.656C388.102 13.4363 388.27 14.3111 388.192 15.1818C387.318 27.1938 356.397 48.5079 338.045 60.1421L334.664 62.2918ZM378.86 11.3514C369.423 13.8398 356.136 29.3695 340.342 56.3639C368.575 38.1244 385.634 22.8032 386.195 15.0905C386.246 14.5451 386.135 13.9971 385.878 13.5135C385.62 13.0298 385.227 12.6316 384.747 12.3676C383.927 11.7246 382.959 11.295 381.932 11.1176C380.904 10.9402 379.849 11.0205 378.86 11.3514Z" fill="white" stroke="white"/>
</svg>
