<svg width="100" height="36" viewBox="0 0 100 36" fill="none" xmlns="http://www.w3.org/2000/svg">
<path d="M93.4447 11.9733C95.4469 10.7191 97.1011 8.95943 98.2489 6.86301C99.3967 4.7666 99.9996 2.40342 100 0H95.9817C95.9776 2.62636 94.9569 5.14417 93.1433 7.00129C91.3297 8.85841 88.8711 9.90359 86.3063 9.90786H31.4056C28.8012 10.0346 26.3284 11.1168 24.4391 12.9566C22.5497 14.7965 21.3701 17.2712 21.1157 19.9284H4.01835V16.0397H0V28.0773H4.01835V24.0432H21.4781C22.1014 26.282 23.3944 28.2641 25.1751 29.7114C26.9559 31.1586 29.1348 31.9981 31.4056 32.1113H43.3975V36H47.4157V32.1113H51.1346V36H55.1686V32.1113H59.0609V36H63.0791V32.1113H84.3524C85.8771 32.0309 87.3134 31.3539 88.3649 30.2204C89.4163 29.0868 90.0026 27.583 90.0026 26.0197C90.0026 24.4563 89.4163 22.9525 88.3649 21.819C87.3134 20.6854 85.8771 20.0088 84.3524 19.9284H63.1737V14.0065H86.3063C88.8711 14.0108 91.3297 15.056 93.1433 16.9131C94.9569 18.7702 95.9776 21.2876 95.9817 23.914H100C99.9942 21.516 99.3887 19.1598 98.2412 17.0695C97.0936 14.9792 95.4423 13.2247 93.4447 11.9733ZM51.1346 14.0227V19.9445H47.4157V14.0227H51.1346ZM31.8153 14.0227H43.3975V19.9445H25.1655C25.4142 18.3131 26.218 16.8239 27.4347 15.7403C28.6515 14.6567 30.203 14.0486 31.8153 14.0227ZM31.9099 28.0126C30.6283 28.0113 29.3732 27.6397 28.2888 26.9403C27.2044 26.2409 26.3348 25.2424 25.7801 24.0594H43.3975V28.0126H31.9099ZM47.4157 28.0126V24.0594H51.1346V28.0126H47.4157ZM55.1686 28.0126V24.0594H59.0609V28.0126H55.1686ZM84.3366 24.0594C84.6047 24.0345 84.875 24.067 85.1302 24.1551C85.3853 24.2431 85.6197 24.3847 85.8185 24.5707C86.0173 24.7567 86.1761 24.983 86.2847 25.2353C86.3933 25.4876 86.4494 25.7601 86.4494 26.0358C86.4494 26.3115 86.3933 26.5844 86.2847 26.8367C86.1761 27.089 86.0173 27.3153 85.8185 27.5013C85.6197 27.6873 85.3853 27.8289 85.1302 27.9169C84.875 28.005 84.6047 28.0375 84.3366 28.0126H63.0791V24.0594H84.3366ZM59.1239 19.9445H55.2317V14.0227H59.1239V19.9445Z" fill="#C5A26E"/>
</svg>
