<svg width="922" height="249" viewBox="0 0 922 249" fill="none" xmlns="http://www.w3.org/2000/svg">
<path d="M757.933 248.752C755.213 248.77 752.509 248.326 749.938 247.437C746.235 246.103 742.974 243.77 740.516 240.697C738.057 237.624 736.497 233.93 736.008 230.025C734.338 219.596 738.763 203.658 756.174 190.138C772.804 177.239 797.927 164.322 823.476 155.545C827.687 146.324 831.792 136.552 835.718 126.478C832.328 128.366 828.512 129.357 824.631 129.356C821.954 129.263 819.342 128.502 817.034 127.143C814.725 125.784 812.793 123.87 811.412 121.574C810.546 120.254 809.87 118.819 809.405 117.31C788.724 133.3 752.55 158.743 731.229 159.862C728.053 160.133 724.859 159.608 721.937 158.334C707.226 151.405 712.307 136.41 715.345 127.437C718.899 116.955 718.455 115.338 716.678 114.343C710.602 110.949 687.096 129.196 667.356 152.613C666.298 153.877 664.81 154.706 663.178 154.941C661.547 155.177 659.885 154.802 658.513 153.889C657.14 152.976 656.152 151.589 655.738 149.993C655.324 148.397 655.514 146.705 656.27 145.24L665.437 127.331C639.071 144.494 605.704 163.807 587.777 164.748C583.175 164.997 579.675 164.038 577.312 161.923C569.992 155.332 567.576 146.128 570.205 134.526C559.118 143.019 548.583 150.641 538.882 157.233C511.876 175.604 493.007 184.843 481.192 185.465C475.471 185.767 471.367 184.15 468.24 180.366C458.574 168.71 465.948 156.042 471.349 146.803C474.334 141.669 477.709 135.877 476.679 132.785C476.27 131.541 474.796 129.605 469.963 127.366C468.541 126.721 467.153 126.004 465.805 125.216C461.257 127.952 456.407 130.671 450.988 133.514C450.926 133.591 450.847 133.652 450.756 133.691C437.502 142.362 404.331 162.634 382.922 163.753C378.525 164.217 374.096 163.271 370.272 161.053C367.132 159.131 364.467 156.525 362.473 153.431C360.48 150.336 359.21 146.832 358.758 143.179C345.042 155.616 326.084 169.546 309.916 170.398C306.46 170.68 302.984 170.235 299.71 169.094C296.436 167.953 293.437 166.14 290.905 163.771C285.131 158.441 282.43 150.392 282.892 140.016C264.628 151.689 225.398 175.426 206.849 176.404C198.196 176.848 191.463 174.449 186.79 169.297C184.735 166.981 183.169 164.273 182.188 161.337C173.678 167.626 161.72 173.045 150.42 166.436C147.436 164.827 144.889 162.516 142.997 159.702C141.106 156.888 139.928 153.657 139.565 150.286C114.211 166.632 69.1711 192.785 38.2918 194.419C29.4082 194.881 22.1415 193.229 16.8291 189.498C-0.529422 177.328 -4.61607 158.014 5.29801 135.113C22.1235 96.2913 78.3035 51.909 103.888 57.2391C120.199 60.6327 124.942 76.0724 125.209 83.7656C125.249 85.5102 124.609 87.2021 123.426 88.4848C122.243 89.7675 120.608 90.5407 118.866 90.6415H118.653C116.885 90.6846 115.172 90.0269 113.887 88.8121C112.603 87.5972 111.85 85.9237 111.795 84.1564C111.795 83.6945 111.208 72.4301 101.134 70.3513C84.6108 66.94 33.619 103.523 17.6285 140.425C10.3085 157.322 12.636 170.132 24.54 178.5C42.4493 191.061 106.376 157.588 146.067 129.8C146.166 129.728 146.273 129.668 146.387 129.623C153.452 120.957 162.951 114.607 173.66 111.393C183.521 108.302 191.427 108.888 197.344 113.17C204.948 118.678 205.321 127.935 205.339 128.965C205.348 129.864 205.178 130.756 204.839 131.588C204.5 132.421 204 133.178 203.366 133.816C202.764 134.431 202.046 134.921 201.253 135.256C200.46 135.592 199.608 135.766 198.747 135.77H198.605C196.862 135.757 195.191 135.068 193.945 133.849C192.699 132.63 191.975 130.974 191.924 129.232C191.812 127.232 190.919 125.356 189.437 124.008C187.27 122.462 183.094 122.551 177.675 124.257C162.555 128.983 153.778 139.199 152.908 146.821C152.658 148.452 152.942 150.12 153.716 151.577C154.491 153.033 155.715 154.201 157.207 154.905C164.883 159.383 177.515 148.882 182.437 143.09C183.384 141.987 184.663 141.221 186.082 140.906C187.502 140.592 188.985 140.747 190.309 141.348C191.633 141.949 192.726 142.963 193.424 144.239C194.123 145.514 194.388 146.981 194.181 148.42C193.879 150.41 193.719 156.913 196.793 160.307C198.569 162.296 201.696 163.22 205.978 163.025H206.156C222.502 162.154 267.684 134.207 283.727 123.511C284.396 123.056 285.152 122.747 285.948 122.605C289.679 109.261 296.875 92.8623 307.269 73.8514C311.817 65.6074 317.041 56.8127 322.779 47.6626C187.092 23.4104 156.124 58.323 155.768 58.625C154.645 59.8562 153.103 60.6245 151.444 60.7798C149.785 60.9351 148.127 60.4663 146.795 59.465C145.463 58.4637 144.552 57.0016 144.24 55.3646C143.928 53.7276 144.238 52.0331 145.108 50.612C146.423 48.8353 179.008 7.13569 330.686 35.4388C340.085 21.2251 347.121 11.6131 347.192 11.5242C348.254 10.1 349.836 9.15332 351.593 8.8904C353.351 8.62749 355.14 9.06958 356.573 10.1206C357.997 11.1828 358.944 12.7648 359.207 14.522C359.47 16.2792 359.027 18.0691 357.976 19.5017C353.712 25.2583 349.342 31.4768 344.936 37.9974C392.694 46.2413 501.073 61.0946 525.503 31.0326C529.607 26.0045 529.057 21.4916 527.848 18.5955C524.686 10.9379 515.589 13.8163 513.794 14.4737C512.131 15.1027 510.286 15.0452 508.665 14.3138C507.044 13.5824 505.78 12.237 505.151 10.5736C504.522 8.91026 504.579 7.06512 505.311 5.44411C506.042 3.8231 507.387 2.55901 509.051 1.92993C516.957 -1.10825 533.623 -2.58291 540.25 13.4964C542.008 17.8121 542.532 22.5317 541.763 27.128C540.995 31.7243 538.964 36.0164 535.897 39.5253C528.524 48.5688 510.721 59.8509 467.742 62.1073C434.198 63.884 390.171 59.8865 336.905 50.2212C310.059 92.205 286.393 141.278 300.038 153.999C301.268 155.114 302.717 155.96 304.292 156.483C305.868 157.006 307.535 157.195 309.188 157.037C326.955 156.096 354.548 130.049 366.665 116.351C379.475 96.5046 403.478 79.3948 419.166 79.0395C427.677 78.8618 434.091 83.2326 436.685 91.0501C439.919 100.787 436.952 110.416 428.335 118.163C415.667 129.516 390.277 136.197 373.256 132.821C373.079 133.354 372.901 133.869 372.759 134.384C370.111 143.605 373.949 147.514 377.574 149.895C384.023 154.124 414.067 141.651 443.188 122.676C443.354 122.488 443.553 122.331 443.774 122.214C447.701 120.171 451.627 117.985 455.465 115.711C453.014 111.736 452.045 107.023 452.729 102.403C454.701 88.7759 470.496 76.5166 483.413 74.6511C491.834 73.4429 498.408 76.5166 501.428 83.1082C505.568 91.9918 497.875 103.434 478.758 116.866C484.408 120.064 487.908 123.973 489.418 128.77C492.19 137.529 487.428 145.702 482.826 153.644C476.892 163.842 475.329 168.124 478.456 171.909C482.702 177.025 525.84 154.426 581.292 108.728C581.476 108.578 581.679 108.452 581.896 108.355C585.515 102.697 589.535 97.3062 593.924 92.2228C594.488 91.4981 595.194 90.8966 595.999 90.4554C596.804 90.0142 597.69 89.7425 598.604 89.6575C599.518 89.5725 600.44 89.6758 601.313 89.9609C602.185 90.246 602.99 90.707 603.677 91.3154C604.365 91.9237 604.92 92.6665 605.31 93.4979C605.699 94.3292 605.913 95.2315 605.94 96.1491C605.967 97.0666 605.805 97.9797 605.465 98.8324C605.125 99.685 604.614 100.459 603.963 101.106C595.47 110.736 574.043 140.62 586.196 151.885C592.45 154.426 632.391 134.402 677.146 103.434C677.41 103.254 677.697 103.111 677.999 103.007V102.865C678.809 101.282 680.215 100.085 681.908 99.539C683.601 98.9925 685.441 99.141 687.024 99.9515C688.608 100.762 689.804 102.168 690.351 103.861C690.897 105.553 690.749 107.394 689.938 108.977L687.433 113.881C702.784 101.764 714.812 98.0147 723.216 102.705C735.564 109.617 731.034 122.978 728.031 131.826C724.104 143.41 724.762 144.92 727.64 146.288C737.821 151.085 779.502 124.968 812.372 97.8549C815.21 92.6162 819.078 88.0051 823.743 84.2985C834.403 75.8769 845.738 75.6816 853.254 83.8012C853.852 84.4463 854.318 85.2029 854.624 86.0279C854.93 86.853 855.071 87.7304 855.038 88.6097C855.005 89.4891 854.799 90.3533 854.432 91.1531C854.065 91.9529 853.544 92.6725 852.899 93.271C852.254 93.8695 851.497 94.335 850.672 94.6411C849.847 94.9471 848.969 95.0877 848.09 95.0547C847.211 95.0217 846.347 94.8157 845.547 94.4487C844.747 94.0817 844.027 93.5607 843.429 92.9155C840.142 89.3621 834.883 92.5958 832.058 94.8167C824.489 100.787 820.296 110.807 822.57 114.219C823.743 115.995 824.56 115.995 825.058 115.995H825.289C830.299 115.995 839.502 107.822 845.756 99.7739C846.716 98.5156 848.091 97.6378 849.636 97.2964C851.182 96.9549 852.798 97.1718 854.199 97.9084C855.6 98.645 856.694 99.8537 857.289 101.32C857.883 102.787 857.94 104.417 857.447 105.921C857.181 106.756 850.98 126.016 840.515 150.339C862.742 144.334 893.248 139.395 917.465 147.674C919.147 148.249 920.532 149.469 921.315 151.065C922.098 152.661 922.215 154.502 921.64 156.185C921.065 157.867 919.846 159.252 918.25 160.035C916.654 160.818 914.812 160.935 913.129 160.36C894.651 154.035 865.567 156.238 833.284 166.401C818.217 198.382 803.079 221.212 788.333 234.413C778.223 243.439 768.487 248.254 759.373 248.734C758.893 248.752 758.413 248.752 757.933 248.752ZM841.048 120.064L839.573 123.884C835.149 135.468 830.459 146.661 825.662 157.179L825.413 157.695L824.88 157.89C799.402 166.578 774.332 179.424 757.809 192.252C741.285 205.08 737.092 219.933 738.638 229.563C739.057 232.992 740.418 236.238 742.57 238.942C744.721 241.645 747.579 243.7 750.826 244.878C753.53 245.816 756.393 246.202 759.248 246.015C767.741 245.571 776.926 240.987 786.574 232.37C801.143 219.347 816.138 196.569 831.134 164.695L831.383 164.162L831.933 163.984C864.98 153.502 894.882 151.245 914 157.783C914.502 157.959 915.035 158.033 915.566 157.999C916.097 157.965 916.615 157.826 917.091 157.588C918.053 157.112 918.787 156.276 919.135 155.261C919.48 154.25 919.41 153.143 918.94 152.184C918.47 151.225 917.64 150.491 916.63 150.144C892.076 141.74 860.627 147.372 838.578 153.59L835.878 154.355L836.997 151.778C848.066 126.353 854.675 105.903 854.942 105.033C855.291 104.109 855.29 103.089 854.937 102.167C854.585 101.244 853.906 100.483 853.03 100.028C852.154 99.572 851.141 99.4538 850.184 99.6951C849.226 99.9365 848.39 100.521 847.835 101.337C842.505 108.338 832.058 118.589 825.253 118.589H824.915C823.955 118.534 823.026 118.229 822.22 117.706C821.413 117.183 820.756 116.458 820.314 115.604C817.009 110.629 821.984 99.2586 830.37 92.6492C836.518 87.7988 841.83 87.319 845.348 91.0145C845.704 91.4087 846.137 91.7267 846.619 91.9495C847.102 92.1724 847.624 92.2956 848.155 92.3115C848.687 92.3461 849.22 92.2674 849.719 92.0805C850.218 91.8937 850.672 91.603 851.051 91.2277C851.442 90.8687 851.758 90.4358 851.98 89.954C852.203 89.4721 852.327 88.951 852.347 88.4206C852.367 87.8903 852.282 87.3611 852.096 86.864C851.91 86.3669 851.627 85.9118 851.264 85.5246C844.779 78.5243 834.847 78.8262 825.36 86.2884C820.92 89.8257 817.249 94.2334 814.575 99.2408L814.451 99.4895L814.237 99.6494C787.267 121.858 739.615 154.728 726.468 148.598C720.978 146.004 721.884 141.491 725.473 130.831C728.511 121.947 732.295 110.718 721.919 104.891C711.543 99.0632 695.748 109.901 684.182 119.886L679.011 124.364L687.593 107.627C688.071 106.667 688.161 105.559 687.842 104.535C687.6 103.771 687.136 103.096 686.509 102.597C685.883 102.098 685.121 101.796 684.322 101.732C683.523 101.667 682.724 101.841 682.025 102.233C681.326 102.625 680.759 103.216 680.397 103.931L679.864 104.98L679.403 105.175L679.011 105.317C678.875 105.355 678.744 105.408 678.62 105.477C640.03 132.128 593.178 158.281 584.792 154.07L584.508 153.857C567.664 138.702 601.635 99.5783 601.991 99.1874C602.589 98.3711 602.859 97.3607 602.75 96.3549C602.64 95.349 602.158 94.4206 601.398 93.7523C600.639 93.084 599.656 92.7241 598.645 92.7435C597.633 92.763 596.666 93.1602 595.932 93.8572C591.565 98.9395 587.563 104.325 583.957 109.972L583.797 110.239L583.53 110.399L583.104 110.612C547.57 139.839 496.525 174.964 480.499 174.964C479.753 175.038 479.001 174.944 478.297 174.689C477.593 174.434 476.955 174.024 476.43 173.49C471.882 168 474.955 161.781 480.534 152.169C484.852 144.76 489.311 137.12 486.895 129.498C485.438 124.879 481.76 121.165 475.63 118.127L473.587 117.115L475.471 115.835C488.707 106.774 503.561 93.9106 499.03 84.0853C496.489 78.5775 491.088 76.1078 483.821 77.1561C471.882 78.9328 457.171 90.1618 455.394 102.652C454.735 107.094 455.831 111.618 458.45 115.267L459.285 116.439L458.059 117.168C453.795 119.708 449.406 122.16 445.035 124.452C444.935 124.577 444.815 124.685 444.68 124.772C421.743 139.714 385.338 158.032 376.134 152.009C373.807 150.481 366.7 145.826 370.218 133.514C370.485 132.59 370.805 131.63 371.178 130.671L371.586 129.587L372.723 129.836C388.714 133.549 414.37 126.975 426.558 116.048C434.34 109.066 437.04 100.449 434.144 91.7608C433.219 88.6865 431.289 86.0112 428.664 84.1625C426.039 82.3138 422.87 81.3984 419.664 81.5625H419.238C404.562 81.9356 381.003 98.85 368.85 117.772L368.743 117.932C356.395 131.915 328.074 158.601 309.33 159.596C307.32 159.785 305.292 159.549 303.379 158.903C301.466 158.257 299.71 157.216 298.226 155.847C291.119 149.149 291.936 134.366 300.837 111.873C307.82 94.2304 320.008 71.5239 335.146 47.9114L335.626 47.1651L336.514 47.3251C389.958 57.0615 434.073 61.0947 467.6 59.318C509.601 57.1148 526.8 46.3479 533.836 37.713C536.588 34.5708 538.414 30.7261 539.111 26.6073C539.807 22.4885 539.346 18.2572 537.78 14.3847C531.952 0.171001 517.064 1.5925 510.01 4.29311C509.514 4.48093 509.06 4.76441 508.674 5.12768C508.288 5.49094 507.977 5.92671 507.759 6.41011C507.542 6.89352 507.421 7.41506 507.405 7.94501C507.389 8.47495 507.477 9.00296 507.665 9.49876C507.853 9.99457 508.136 10.4486 508.5 10.8348C508.863 11.221 509.299 11.5318 509.782 11.7496C510.265 11.9674 510.787 12.0878 511.317 12.104C511.847 12.1202 512.375 12.032 512.871 11.8442C514.221 11.3467 526.143 7.33114 530.3 17.4584C531.775 21.0119 532.485 26.5553 527.564 32.6139C516.388 46.3301 487.979 52.6376 443.081 51.3761C407.032 50.3456 368.459 44.7133 342.448 40.1649L340.44 39.8097L341.577 38.1216C346.392 31.0148 351.172 24.1035 355.791 17.8139C356.106 17.3869 356.334 16.902 356.462 16.387C356.589 15.872 356.614 15.3369 356.535 14.8122C356.456 14.2876 356.274 13.7836 356 13.3292C355.726 12.8748 355.365 12.4788 354.938 12.1638C354.511 11.8489 354.027 11.6211 353.512 11.4935C352.997 11.3658 352.461 11.341 351.937 11.4201C351.412 11.4993 350.908 11.681 350.454 11.955C349.999 12.2289 349.603 12.5897 349.288 13.0166C349.288 13.0166 341.915 23.0374 332.392 37.5354L331.894 38.2815L331.024 38.1039C180.234 9.80076 148.501 50.3454 147.222 52.0866C146.903 52.5113 146.672 52.9952 146.541 53.51C146.41 54.0249 146.382 54.5606 146.46 55.0861C146.538 55.6116 146.719 56.1164 146.993 56.5714C147.267 57.0263 147.629 57.4225 148.057 57.7367C148.926 58.3757 150.012 58.6442 151.078 58.483C151.601 58.4053 152.102 58.2236 152.554 57.949C153.006 57.6744 153.398 57.3123 153.707 56.8839C153.992 56.5108 185.83 19.9814 325.196 45.2819L327.151 45.6371L326.084 47.3074C319.955 57.0082 314.411 66.336 309.614 75.0419C298.954 94.266 291.847 110.754 288.294 124.044L288.045 124.95H287.121C286.441 124.974 285.779 125.176 285.202 125.536C269.052 136.321 223.568 164.411 206.476 165.495H206.174C201.057 165.761 197.184 164.571 194.785 161.941C190.219 156.931 191.498 147.958 191.516 147.869C191.646 146.997 191.491 146.106 191.075 145.329C190.659 144.551 190.004 143.928 189.206 143.552C188.407 143.183 187.509 143.086 186.649 143.275C185.789 143.464 185.015 143.93 184.445 144.6C179.843 150.019 165.736 162.776 155.822 157.037C153.887 156.074 152.305 154.525 151.301 152.611C150.296 150.698 149.92 148.517 150.225 146.377C151.184 137.884 160.637 126.638 176.876 121.503C183.29 119.495 188.033 119.549 190.965 121.627C192.034 122.537 192.902 123.659 193.514 124.922C194.126 126.186 194.468 127.562 194.518 128.965C194.564 130.024 195.016 131.025 195.78 131.76C196.545 132.494 197.563 132.906 198.623 132.909C199.141 132.931 199.658 132.839 200.137 132.639C200.615 132.44 201.045 132.138 201.394 131.755C201.781 131.371 202.087 130.914 202.295 130.411C202.502 129.908 202.607 129.368 202.603 128.823C202.522 126.175 201.864 123.577 200.673 121.21C199.482 118.844 197.788 116.767 195.709 115.124C190.574 111.411 183.396 110.967 174.388 113.792C164.085 116.87 154.959 123.004 148.217 131.382L148.04 131.595L147.809 131.737L147.435 131.915C125.86 147.002 102.993 160.153 79.1029 171.216C50.9952 183.83 32.091 186.957 22.9409 180.543C9.8465 171.358 7.2169 157.446 15.1055 139.217C22.5144 122.143 38.0607 103.452 57.7467 87.9409C75.7271 73.7271 92.9436 65.8028 101.596 67.5973C113.625 70.1025 114.3 83.3569 114.318 83.9255C114.359 84.9735 114.803 85.9653 115.558 86.6936C116.313 87.4219 117.319 87.8304 118.368 87.8342H118.475C119.543 87.7925 120.553 87.3339 121.287 86.5567C122.021 85.7795 122.421 84.7456 122.401 83.6767C122.206 76.712 117.942 62.747 103.248 59.6732C78.5876 54.5385 24.0958 98.0503 7.66118 136.072C-1.70211 157.695 2.06453 175.853 18.3215 187.224C23.1364 190.617 29.8169 192.11 38.1141 191.666C69.1712 190.031 115.295 162.794 140.009 146.697L142.07 145.364V147.816C142.053 151.146 142.944 154.417 144.647 157.278C146.35 160.14 148.8 162.483 151.735 164.055C162.395 170.309 174.14 164.198 182.046 157.979L183.645 156.735L184.16 158.69C184.967 161.919 186.532 164.91 188.726 167.413C192.848 171.997 198.907 174.112 206.653 173.685C225.362 172.69 266.724 147.212 283.639 136.374L285.948 134.899L285.7 137.618C284.687 148.598 286.979 156.522 292.7 161.852C294.972 163.969 297.661 165.588 300.595 166.607C303.529 167.626 306.643 168.021 309.739 167.769C325.942 166.916 345.451 151.778 358.954 139.341L361.139 137.316V140.301C361.171 144.022 362.152 147.674 363.99 150.911C365.827 154.147 368.46 156.862 371.639 158.796C374.989 160.705 378.859 161.502 382.691 161.071C404.011 159.951 438.746 138.275 449.104 131.524C449.168 131.456 449.24 131.396 449.318 131.346L449.477 131.239C455.181 128.237 460.28 125.376 465.024 122.498L465.717 122.089L466.409 122.516C467.893 123.403 469.423 124.209 470.993 124.932C475.648 127.082 478.313 129.374 479.131 132.039C480.463 136.25 476.91 142.326 473.481 148.189C467.937 157.713 461.648 168.497 470.123 178.731C471.9 180.828 474.671 183.191 480.89 182.853C492.048 182.267 511.094 172.921 537.23 155.083C547.783 147.976 559.314 139.501 571.485 130.12L574.754 127.597L573.581 131.559C569.921 143.872 571.805 153.431 579.036 159.987C580.812 161.621 583.726 162.35 587.564 162.137C602.044 161.373 629.903 147.639 668.12 122.391L672.366 119.602L658.562 146.519C658.125 147.403 658.025 148.416 658.281 149.368C658.538 150.32 659.132 151.145 659.954 151.69C660.776 152.235 661.768 152.462 662.744 152.328C663.721 152.193 664.615 151.707 665.259 150.961C681.499 131.666 708.576 106.863 717.904 112.069C722.044 114.378 721.049 118.802 717.797 128.361C714.706 137.511 710.441 150.055 723.003 155.989C725.528 157.068 728.281 157.502 731.016 157.251C752.248 156.131 789.186 129.676 809.316 114.005L811.093 112.655L811.501 114.805C811.841 116.705 812.56 118.518 813.615 120.135C814.769 122.069 816.388 123.685 818.323 124.836C820.259 125.987 822.452 126.637 824.702 126.727C829.349 126.599 833.847 125.062 837.601 122.32L841.048 120.064ZM757.862 238.002C756.394 238.018 754.934 237.783 753.545 237.309C751.668 236.603 750.026 235.388 748.802 233.8C747.578 232.212 746.82 230.314 746.615 228.319C745.443 220.946 749.05 209.273 762.766 198.63C776.891 187.668 796.31 177.185 817.4 169.119L820.598 167.893L819.07 170.949C806.135 196.818 793.396 215.474 781.19 226.365C772.769 233.898 764.401 238.002 757.862 238.002ZM815.126 172.868C795.582 180.65 777.601 190.493 764.4 200.745C751.608 210.659 748.197 221.266 749.245 227.893C749.381 229.411 749.939 230.862 750.856 232.08C751.772 233.298 753.012 234.236 754.433 234.787C760.314 236.883 769.873 232.903 779.414 224.393C790.873 214.141 802.884 196.818 815.126 172.868ZM382.726 122.871C381.017 122.879 379.308 122.784 377.609 122.587L375.442 122.32L376.685 120.544C387.452 104.766 407.191 90.3395 418.918 89.7531H419.398C423.2 89.7531 425.367 91.0679 426.504 94.4081C428.281 100.005 426.504 105.299 421.174 110.132C412.006 118.287 395.217 122.871 382.726 122.871ZM380.203 120.135C392.107 120.775 410.194 116.333 419.38 108.089C426.202 101.977 424.568 97.0554 423.964 95.2076C423.36 93.3598 422.418 92.3116 419.451 92.3649H419.06C408.72 92.9334 390.65 105.921 380.292 120.135H380.203ZM466.196 112.158L465.432 111.162C464.607 110.152 464 108.981 463.648 107.725C463.296 106.468 463.208 105.152 463.389 103.86C464.615 95.3319 476.288 86.4661 484.976 85.2224C485.428 85.1435 485.885 85.0961 486.344 85.0804C489.098 84.9027 490.857 85.72 491.674 87.5145V87.7277C493.291 93.6797 473.303 107.396 467.138 111.465L466.196 112.158ZM486.966 87.7277H486.469L485.367 87.8342C477.798 88.9357 467.049 97.0733 466.019 104.233C465.807 105.708 466.101 107.211 466.854 108.497C483.164 97.6061 489.383 90.2327 489.205 88.5093C489.045 88.2073 488.672 87.7277 486.895 87.7277H486.966Z" fill="#00747A"/>
</svg>
