<svg width="639" height="174" viewBox="0 0 639 174" fill="none" xmlns="http://www.w3.org/2000/svg">
<path d="M421.493 60.9182C420.498 60.9076 419.533 60.5764 418.741 59.9736C417.948 59.3708 417.372 58.5287 417.096 57.5722C416.82 56.6157 416.861 55.5959 417.21 54.6641C417.56 53.7322 418.201 52.938 419.038 52.3993C419.284 52.2398 425.176 48.2749 424.832 41.3517C424.768 40.7262 424.831 40.0941 425.018 39.4938C425.205 38.8935 425.512 38.3375 425.921 37.8596C426.33 37.3817 426.831 36.9919 427.395 36.7138C427.959 36.4356 428.574 36.2751 429.202 36.2417C429.83 36.2084 430.458 36.3031 431.048 36.52C431.638 36.7369 432.178 37.0714 432.635 37.5034C433.092 37.9354 433.457 38.4558 433.706 39.0329C433.956 39.61 434.086 40.2319 434.088 40.8607C434.738 53.1358 424.476 59.8625 424.034 60.1449C423.359 60.5729 422.586 60.8222 421.788 60.8692L421.493 60.9182ZM426.624 41.278C427.042 49.1954 420.278 53.725 419.983 53.9091C419.358 54.3096 418.918 54.942 418.759 55.6671C418.6 56.3923 418.736 57.1508 419.137 57.7759C419.537 58.4009 420.169 58.8412 420.894 59.0001C421.62 59.1589 422.378 59.0232 423.003 58.6228C423.396 58.365 432.823 52.2274 432.197 40.9834C432.178 40.6175 432.087 40.259 431.929 39.9283C431.771 39.5977 431.55 39.3013 431.277 39.0562C431.005 38.8112 430.687 38.6222 430.341 38.5C429.996 38.3779 429.629 38.3248 429.264 38.3442C428.898 38.3635 428.539 38.4548 428.208 38.6127C427.878 38.7706 427.581 38.9921 427.336 39.2645C427.091 39.537 426.902 39.855 426.78 40.2005C426.658 40.5459 426.605 40.912 426.624 41.278Z" fill="white" stroke="white"/>
<path d="M524.648 172.86C522.769 172.873 520.901 172.566 519.124 171.951C516.566 171.03 514.313 169.418 512.614 167.295C510.916 165.172 509.838 162.62 509.5 159.922C508.347 152.716 511.403 141.705 523.433 132.364C534.922 123.452 552.279 114.528 569.931 108.464C572.84 102.093 575.676 95.3421 578.389 88.3821C576.047 89.6866 573.41 90.3711 570.729 90.3707C568.879 90.3062 567.075 89.7806 565.48 88.8417C563.885 87.9028 562.55 86.5802 561.596 84.9942C560.997 84.0824 560.531 83.0907 560.209 82.0483C545.921 93.0959 520.929 110.674 506.198 111.447C504.004 111.634 501.798 111.271 499.779 110.392C489.615 105.604 493.125 95.244 495.225 89.045C497.68 81.8027 497.373 80.6857 496.145 79.9983C491.947 77.6537 475.707 90.2603 462.069 106.439C461.338 107.312 460.31 107.885 459.183 108.047C458.055 108.21 456.908 107.951 455.959 107.32C455.011 106.689 454.328 105.731 454.043 104.629C453.757 103.526 453.887 102.357 454.41 101.345L460.744 88.9715C442.527 100.829 419.475 114.172 407.089 114.823C403.91 114.995 401.491 114.332 399.859 112.871C394.801 108.317 393.132 101.958 394.949 93.9428C387.289 99.8103 380.01 105.076 373.308 109.63C354.649 122.323 341.613 128.706 333.45 129.136C329.498 129.344 326.662 128.227 324.502 125.613C317.824 117.56 322.918 108.808 326.65 102.425C328.712 98.8775 331.044 94.8757 330.332 92.7399C330.05 91.8806 329.031 90.5426 325.692 88.9959C324.71 88.5502 323.751 88.0545 322.82 87.5106C319.677 89.401 316.327 91.2792 312.583 93.2432C312.54 93.2965 312.485 93.3386 312.423 93.3659C303.266 99.3562 280.348 113.362 265.556 114.136C262.519 114.455 259.459 113.802 256.817 112.27C254.648 110.942 252.806 109.142 251.429 107.004C250.052 104.866 249.174 102.445 248.862 99.9208C239.386 108.513 226.288 118.137 215.118 118.726C212.73 118.921 210.329 118.614 208.067 117.825C205.805 117.037 203.733 115.784 201.983 114.148C197.994 110.465 196.128 104.904 196.447 97.7358C183.828 105.801 156.725 122.2 143.91 122.875C137.932 123.182 133.28 121.525 130.051 117.965C128.631 116.365 127.55 114.495 126.872 112.466C120.992 116.811 112.731 120.555 104.924 115.989C102.862 114.877 101.102 113.28 99.7954 111.336C98.4888 109.392 97.6748 107.16 97.4237 104.831C79.9071 116.124 48.7896 134.193 27.4554 135.322C21.3178 135.641 16.2973 134.5 12.627 131.922C0.634228 123.514 -2.18919 110.171 4.66034 94.3478C16.2849 67.5266 55.0991 36.8634 72.7753 40.5459C84.0439 42.8905 87.3213 53.5576 87.5055 58.8728C87.5329 60.0781 87.0914 61.247 86.2739 62.1332C85.4564 63.0194 84.3268 63.5536 83.1231 63.6233H82.9758C81.7546 63.653 80.5711 63.1987 79.6835 62.3593C78.7959 61.52 78.2762 60.3638 78.2377 59.1428C78.2377 58.8236 77.8326 51.0412 70.8726 49.605C59.4567 47.2481 24.227 72.5228 13.1794 98.0182C8.12201 109.692 9.73007 118.542 17.9544 124.324C30.3278 133.002 74.4938 109.876 101.916 90.6776C101.985 90.6274 102.059 90.5862 102.137 90.5549C107.018 84.5679 113.581 80.181 120.98 77.9605C127.792 75.8247 133.255 76.2297 137.343 79.1881C142.596 82.9934 142.854 89.3887 142.866 90.1007C142.872 90.7217 142.755 91.3376 142.521 91.9129C142.287 92.4882 141.941 93.0113 141.504 93.4518C141.088 93.8769 140.591 94.2152 140.043 94.447C139.495 94.6788 138.907 94.7996 138.312 94.8022H138.214C137.01 94.7931 135.856 94.3173 134.995 93.4749C134.134 92.6324 133.633 91.4888 133.599 90.2848C133.521 88.9031 132.904 87.607 131.88 86.6759C130.383 85.6079 127.498 85.6693 123.754 86.8477C113.308 90.1129 107.244 97.1712 106.642 102.437C106.47 103.564 106.666 104.716 107.201 105.723C107.736 106.729 108.582 107.536 109.613 108.022C114.916 111.116 123.643 103.861 127.044 99.8595C127.698 99.0973 128.582 98.5677 129.562 98.3507C130.543 98.1337 131.568 98.2409 132.483 98.656C133.397 99.0711 134.152 99.7719 134.635 100.653C135.117 101.534 135.301 102.548 135.158 103.542C134.949 104.917 134.838 109.41 136.962 111.754C138.189 113.129 140.35 113.767 143.308 113.632H143.431C154.724 113.031 185.94 93.7219 197.024 86.3323C197.486 86.0182 198.009 85.8049 198.559 85.7062C201.136 76.4876 206.108 65.1576 213.289 52.0231C216.431 46.3275 220.04 40.2513 224.005 33.9296C130.26 17.174 108.864 41.2947 108.619 41.5034C107.843 42.354 106.777 42.8848 105.631 42.9921C104.485 43.0994 103.34 42.7756 102.419 42.0838C101.499 41.392 100.869 40.3818 100.654 39.2508C100.438 38.1198 100.652 36.9491 101.254 35.9673C102.162 34.7398 124.675 5.92997 229.468 25.4843C235.961 15.6642 240.822 9.02336 240.871 8.96198C241.605 7.97798 242.698 7.32393 243.912 7.14229C245.126 6.96064 246.363 7.26608 247.352 7.9922C248.336 8.72607 248.991 9.8191 249.172 11.0331C249.354 12.2471 249.048 13.4838 248.322 14.4735C245.376 18.4507 242.357 22.747 239.312 27.252C272.308 32.9477 347.186 43.2096 364.064 22.4401C366.9 18.9662 366.52 15.8483 365.685 13.8475C363.5 8.55688 357.215 10.5455 355.975 10.9997C354.826 11.4343 353.551 11.3946 352.431 10.8893C351.311 10.384 350.438 9.45444 350.003 8.30522C349.569 7.156 349.608 5.88122 350.114 4.76128C350.619 3.64134 351.548 2.76799 352.698 2.33337C358.16 0.23432 369.674 -0.784505 374.253 10.3245C375.468 13.3062 375.83 16.5669 375.298 19.7424C374.767 22.918 373.364 25.8834 371.246 28.3076C366.151 34.5557 353.852 42.3503 324.158 43.9093C300.982 45.1368 270.565 42.375 233.764 35.6973C215.216 64.7035 198.866 98.6073 208.293 107.396C209.143 108.166 210.144 108.751 211.232 109.112C212.321 109.474 213.473 109.604 214.615 109.495C226.89 108.845 245.953 90.8495 254.325 81.3854C263.175 67.674 279.759 55.853 290.598 55.6075C296.477 55.4848 300.909 58.5045 302.701 63.9056C304.935 70.6323 302.885 77.2855 296.932 82.6374C288.18 90.4813 270.638 95.0967 258.879 92.7644C258.756 93.1327 258.633 93.4887 258.535 93.8447C256.706 100.215 259.357 102.916 261.862 104.561C266.317 107.482 287.075 98.8651 307.194 85.7552C307.308 85.6255 307.446 85.5175 307.599 85.4362C310.312 84.0246 313.024 82.5147 315.676 80.9435C313.983 78.197 313.313 74.9411 313.786 71.7494C315.148 62.3344 326.061 53.8645 334.985 52.5756C340.803 51.7409 345.345 53.8645 347.432 58.4186C350.292 64.5562 344.977 72.4614 331.768 81.7414C335.672 83.9509 338.09 86.6514 339.134 89.9657C341.048 96.0173 337.759 101.664 334.58 107.151C330.48 114.197 329.399 117.155 331.56 119.77C334.494 123.305 364.298 107.691 402.608 76.1193C402.735 76.0151 402.876 75.9285 403.026 75.8615C405.526 71.9526 408.303 68.2278 411.336 64.7158C411.725 64.2151 412.213 63.7995 412.769 63.4947C413.325 63.1899 413.938 63.0022 414.569 62.9434C415.201 62.8847 415.838 62.9561 416.441 63.153C417.043 63.35 417.599 63.6685 418.074 64.0888C418.549 64.5091 418.933 65.0223 419.202 65.5967C419.471 66.1711 419.619 66.7944 419.637 67.4284C419.656 68.0623 419.544 68.6932 419.309 69.2822C419.074 69.8713 418.721 70.4061 418.271 70.8533C412.404 77.5065 397.6 98.1532 405.996 105.936C410.317 107.691 437.912 93.8569 468.833 72.4613C469.015 72.3371 469.213 72.238 469.422 72.1667V72.0686C469.982 70.9747 470.953 70.1479 472.123 69.7704C473.292 69.3929 474.564 69.4955 475.658 70.0554C476.752 70.6154 477.578 71.5869 477.956 72.7563C478.334 73.9258 478.231 75.1973 477.671 76.2911L475.94 79.6791C486.546 71.3074 494.856 68.7173 500.662 71.958C509.194 76.733 506.063 85.9639 503.989 92.077C501.276 100.08 501.73 101.124 503.719 102.069C510.753 105.383 539.55 87.3388 562.259 68.6069C564.22 64.9875 566.892 61.8018 570.115 59.2409C577.48 53.4225 585.312 53.2876 590.504 58.8974C590.918 59.3431 591.239 59.8658 591.451 60.4358C591.662 61.0058 591.759 61.612 591.736 62.2195C591.714 62.8271 591.571 63.4242 591.318 63.9767C591.064 64.5293 590.704 65.0265 590.259 65.4399C589.813 65.8534 589.29 66.1751 588.72 66.3865C588.15 66.5979 587.544 66.6951 586.936 66.6723C586.329 66.6495 585.732 66.5072 585.179 66.2536C584.627 66 584.129 65.6401 583.716 65.1944C581.445 62.7393 577.812 64.9735 575.86 66.5079C570.631 70.6323 567.734 77.5556 569.305 79.9124C570.115 81.1399 570.68 81.1399 571.024 81.1399H571.183C574.645 81.1399 581.003 75.4933 585.324 69.9327C585.987 69.0634 586.937 68.4569 588.005 68.221C589.072 67.9851 590.189 68.135 591.157 68.6439C592.125 69.1528 592.881 69.9879 593.292 71.0012C593.703 72.0146 593.741 73.1407 593.401 74.1798C593.217 74.7568 588.933 88.063 581.703 104.868C597.059 100.719 618.136 97.3062 634.867 103.026C636.029 103.424 636.986 104.266 637.527 105.369C638.068 106.472 638.148 107.744 637.751 108.906C637.354 110.069 636.511 111.025 635.409 111.566C634.306 112.107 633.034 112.188 631.871 111.791C619.105 107.421 599.011 108.943 576.707 115.965C566.297 138.06 555.839 153.833 545.651 162.954C538.666 169.189 531.94 172.516 525.642 172.848C525.311 172.86 524.979 172.86 524.648 172.86ZM582.071 83.9508L581.052 86.59C577.996 94.5934 574.755 102.327 571.441 109.594L571.269 109.95L570.901 110.085C553.298 116.087 535.978 124.962 524.562 133.825C513.146 142.687 510.249 152.949 511.317 159.603C511.607 161.972 512.547 164.215 514.033 166.082C515.52 167.95 517.494 169.37 519.738 170.184C521.606 170.831 523.584 171.099 525.556 170.969C531.424 170.662 537.77 167.496 544.435 161.542C554.501 152.544 564.861 136.808 575.222 114.786L575.393 114.418L575.774 114.295C598.606 107.053 619.265 105.494 632.473 110.011C632.82 110.132 633.188 110.183 633.555 110.16C633.922 110.137 634.28 110.04 634.609 109.876C635.273 109.547 635.78 108.969 636.02 108.268C636.259 107.57 636.21 106.805 635.886 106.142C635.561 105.48 634.988 104.973 634.29 104.733C617.326 98.9266 595.598 102.818 580.365 107.114L578.499 107.642L579.272 105.862C586.92 88.2962 591.486 74.1676 591.67 73.5661C591.912 72.928 591.911 72.2234 591.667 71.5861C591.424 70.9487 590.955 70.4228 590.349 70.108C589.744 69.7933 589.044 69.7115 588.383 69.8783C587.721 70.0451 587.144 70.4488 586.76 71.0129C583.078 75.8493 575.86 82.932 571.158 82.932H570.925C570.262 82.8936 569.62 82.6833 569.063 82.3217C568.505 81.9602 568.051 81.4597 567.746 80.8697C565.463 77.4327 568.9 69.5767 574.694 65.0104C578.941 61.6592 582.611 61.3278 585.042 63.881C585.288 64.1533 585.587 64.373 585.92 64.527C586.253 64.6809 586.614 64.766 586.981 64.777C587.349 64.8009 587.717 64.7465 588.062 64.6175C588.407 64.4884 588.72 64.2876 588.982 64.0283C589.252 63.7802 589.47 63.4811 589.624 63.1483C589.778 62.8154 589.864 62.4553 589.877 62.0889C589.891 61.7224 589.832 61.3569 589.704 61.0134C589.576 60.67 589.38 60.3555 589.129 60.088C584.649 55.2516 577.787 55.4602 571.232 60.6158C568.165 63.0596 565.629 66.1049 563.781 69.5644L563.695 69.7363L563.548 69.8467C544.914 85.1906 511.992 107.9 502.909 103.665C499.116 101.873 499.742 98.7547 502.221 91.3896C504.32 85.2521 506.935 77.4942 499.766 73.4679C492.598 69.4417 481.685 76.9295 473.694 83.8281L470.122 86.9215L476.051 75.3582C476.381 74.6951 476.443 73.9298 476.223 73.2224C476.056 72.6944 475.735 72.2282 475.302 71.8832C474.869 71.5382 474.343 71.3301 473.791 71.2853C473.239 71.2405 472.687 71.3611 472.204 71.6318C471.721 71.9024 471.329 72.311 471.079 72.805L470.711 73.5292L470.392 73.6642L470.122 73.7625C470.028 73.7885 469.937 73.8255 469.852 73.873C443.19 92.2857 410.821 110.355 405.027 107.445L404.83 107.298C393.193 96.8275 416.664 69.7976 416.909 69.5275C417.322 68.9636 417.509 68.2655 417.433 67.5706C417.358 66.8756 417.025 66.2342 416.5 65.7725C415.975 65.3107 415.296 65.0621 414.597 65.0755C413.898 65.089 413.23 65.3634 412.723 65.845C409.706 69.3563 406.941 73.0769 404.45 76.9786L404.339 77.1626L404.155 77.2732L403.86 77.4205C379.31 97.6131 344.044 121.881 332.971 121.881C332.457 121.932 331.937 121.867 331.45 121.691C330.964 121.514 330.523 121.231 330.161 120.862C327.018 117.069 329.142 112.773 332.996 106.132C335.979 101.013 339.06 95.735 337.391 90.469C336.384 87.2775 333.843 84.7119 329.608 82.6129L328.197 81.9133L329.498 81.0293C338.643 74.769 348.905 65.8818 345.775 59.0936C344.019 55.2883 340.288 53.5821 335.267 54.3063C327.018 55.5338 316.854 63.2918 315.627 71.9213C315.172 74.9903 315.929 78.116 317.738 80.6366L318.315 81.4468L317.468 81.95C314.522 83.7053 311.49 85.3993 308.47 86.9827C308.401 87.0688 308.318 87.1435 308.225 87.2038C292.378 97.5272 267.226 110.183 260.867 106.022C259.259 104.966 254.349 101.75 256.78 93.2432C256.964 92.6049 257.185 91.9419 257.443 91.279L257.725 90.5303L258.51 90.7022C269.558 93.2677 287.283 88.7258 295.704 81.1766C301.081 76.3525 302.947 70.3991 300.946 64.3966C300.306 62.2726 298.973 60.4243 297.16 59.147C295.346 57.8697 293.157 57.2373 290.941 57.3507H290.647C280.507 57.6084 264.231 69.2944 255.835 82.3674L255.761 82.4779C247.23 92.1384 227.663 110.576 214.713 111.263C213.324 111.394 211.923 111.231 210.601 110.784C209.279 110.338 208.066 109.619 207.041 108.673C202.131 104.045 202.695 93.8323 208.845 78.292C213.669 66.1028 222.09 50.4151 232.549 34.1015L232.88 33.5858L233.494 33.6964C270.418 40.4232 300.896 43.2097 324.06 41.9822C353.078 40.46 364.96 33.0213 369.821 27.0555C371.723 24.8846 372.985 22.2283 373.466 19.3827C373.947 16.537 373.629 13.6137 372.546 10.9383C368.52 1.11814 358.234 2.10024 353.361 3.96606C353.018 4.09583 352.704 4.29168 352.438 4.54266C352.171 4.79363 351.956 5.0947 351.805 5.42868C351.655 5.76266 351.572 6.12299 351.561 6.48912C351.549 6.85525 351.61 7.22005 351.74 7.5626C351.87 7.90515 352.066 8.21881 352.317 8.48563C352.568 8.75244 352.869 8.96721 353.203 9.11767C353.537 9.26813 353.897 9.35131 354.264 9.36251C354.63 9.37371 354.994 9.31277 355.337 9.183C356.27 8.8393 364.506 6.065 367.379 13.0618C368.398 15.5169 368.888 19.3468 365.488 23.5326C357.767 33.009 338.139 37.3667 307.12 36.4952C282.214 35.7832 255.564 31.892 237.594 28.7495L236.207 28.5041L236.992 27.3378C240.319 22.4278 243.621 17.6528 246.812 13.3074C247.03 13.0124 247.187 12.6774 247.276 12.3216C247.364 11.9658 247.381 11.5961 247.326 11.2336C247.271 10.8711 247.146 10.5229 246.957 10.209C246.767 9.89503 246.518 9.62149 246.223 9.40387C245.928 9.18625 245.593 9.02887 245.237 8.9407C244.882 8.85254 244.512 8.83534 244.149 8.89006C243.787 8.94477 243.439 9.07031 243.125 9.25957C242.811 9.44883 242.537 9.69806 242.32 9.99305C242.32 9.99305 237.225 16.9163 230.646 26.9328L230.302 27.4483L229.701 27.3256C125.522 7.77124 103.598 35.7831 102.714 36.9861C102.494 37.2795 102.334 37.6138 102.243 37.9695C102.153 38.3252 102.134 38.6954 102.188 39.0584C102.241 39.4215 102.367 39.7702 102.556 40.0845C102.745 40.3989 102.995 40.6726 103.291 40.8897C103.891 41.3312 104.642 41.5167 105.378 41.4053C105.739 41.3516 106.086 41.2261 106.398 41.0364C106.71 40.8466 106.981 40.5965 107.195 40.3005C107.391 40.0427 129.388 14.805 225.674 32.2848L227.025 32.5302L226.288 33.6841C222.053 40.3864 218.223 46.8308 214.909 52.8456C207.544 66.1273 202.634 77.5186 200.179 86.7004L200.007 87.3265H199.369C198.899 87.3433 198.442 87.4831 198.043 87.7317C186.885 95.1827 155.461 114.59 143.652 115.338H143.443C139.908 115.523 137.232 114.7 135.575 112.883C132.42 109.422 133.304 103.223 133.316 103.161C133.406 102.559 133.299 101.943 133.012 101.406C132.724 100.869 132.272 100.438 131.72 100.179C131.168 99.9237 130.548 99.8566 129.954 99.9873C129.36 100.118 128.825 100.44 128.431 100.903C125.251 104.647 115.505 113.46 108.656 109.495C107.319 108.83 106.226 107.76 105.532 106.438C104.838 105.116 104.578 103.609 104.789 102.13C105.452 96.2629 111.982 88.4927 123.202 84.9452C127.633 83.5581 130.91 83.5948 132.936 85.031C133.674 85.6593 134.274 86.4346 134.697 87.3075C135.12 88.1803 135.356 89.1315 135.391 90.1007C135.422 90.8324 135.734 91.5238 136.262 92.0313C136.791 92.5387 137.494 92.8232 138.226 92.8257C138.584 92.8406 138.941 92.7769 139.272 92.639C139.603 92.5012 139.9 92.2927 140.141 92.028C140.408 91.763 140.62 91.4473 140.763 91.0995C140.906 90.7517 140.979 90.3787 140.976 90.0025C140.921 88.1731 140.465 86.378 139.643 84.743C138.82 83.1081 137.65 81.6729 136.213 80.5383C132.666 77.9728 127.706 77.6659 121.483 79.6177C114.365 81.7444 108.059 85.9821 103.402 91.7701L103.279 91.9174L103.119 92.0157L102.862 92.1384C87.9552 102.562 72.1571 111.648 55.6514 119.291C36.2321 128.006 23.1713 130.167 16.8496 125.735C7.80284 119.389 5.98608 109.778 11.4362 97.1835C16.555 85.387 27.2957 72.4736 40.8966 61.7574C53.3191 51.9373 65.2137 46.4625 71.1917 47.7023C79.502 49.4331 79.9685 58.5904 79.9808 58.9832C80.0093 59.7073 80.3163 60.3925 80.8377 60.8957C81.3592 61.3988 82.0548 61.6811 82.7794 61.6837H82.8531C83.5912 61.6549 84.2886 61.3381 84.7957 60.8011C85.3028 60.2641 85.5793 59.5498 85.5659 58.8113C85.4309 53.9995 82.4848 44.3512 72.3332 42.2276C55.2953 38.6801 17.6475 68.7419 6.29303 95.0107C-0.175972 109.95 2.42636 122.495 13.6581 130.351C16.9847 132.695 21.6002 133.727 27.3327 133.42C48.7896 132.29 80.6559 113.473 97.7306 102.351L99.1546 101.431V103.125C99.1428 105.425 99.7583 107.685 100.935 109.662C102.111 111.639 103.805 113.257 105.832 114.344C113.197 118.665 121.311 114.442 126.774 110.146L127.878 109.287L128.234 110.637C128.792 112.868 129.873 114.935 131.389 116.664C134.237 119.831 138.423 121.292 143.775 120.997C156.7 120.31 185.277 102.707 196.963 95.2195L198.559 94.2005L198.387 96.0787C197.687 103.665 199.271 109.139 203.223 112.822C204.793 114.284 206.651 115.403 208.678 116.107C210.705 116.811 212.857 117.084 214.995 116.91C226.19 116.32 239.668 105.862 248.997 97.2693L250.507 95.8701V97.9322C250.529 100.503 251.207 103.027 252.477 105.263C253.746 107.499 255.565 109.374 257.762 110.711C260.076 112.03 262.75 112.58 265.397 112.282C280.127 111.509 304.125 96.5329 311.281 91.8684C311.325 91.8215 311.375 91.7802 311.429 91.7455L311.539 91.6719C315.479 89.5974 319.002 87.6211 322.28 85.6325L322.759 85.3502L323.237 85.6448C324.262 86.2575 325.32 86.8148 326.404 87.3142C329.62 88.7995 331.462 90.383 332.026 92.2243C332.947 95.1335 330.492 99.3317 328.123 103.382C324.293 109.962 319.948 117.413 325.803 124.483C327.03 125.932 328.945 127.565 333.242 127.331C340.951 126.926 354.109 120.469 372.166 108.145C379.458 103.235 387.424 97.3799 395.833 90.8986L398.091 89.1555L397.281 91.8928C394.752 100.399 396.054 107.004 401.05 111.533C402.277 112.662 404.29 113.166 406.941 113.018C416.946 112.491 436.193 103.002 462.597 85.5589L465.531 83.6317L455.993 102.229C455.691 102.839 455.622 103.539 455.8 104.197C455.977 104.854 456.388 105.425 456.955 105.801C457.523 106.178 458.208 106.334 458.883 106.241C459.558 106.149 460.176 105.813 460.621 105.297C471.84 91.9665 490.548 74.8304 496.992 78.427C499.852 80.0228 499.165 83.0793 496.918 89.6834C494.783 96.0051 491.836 104.671 500.515 108.771C502.259 109.517 504.162 109.816 506.051 109.643C520.72 108.869 546.24 90.5918 560.148 79.7651L561.375 78.8322L561.657 80.3174C561.892 81.6306 562.389 82.883 563.118 84C563.915 85.3363 565.033 86.4526 566.371 87.2478C567.708 88.043 569.223 88.4919 570.778 88.554C573.988 88.4657 577.096 87.4041 579.69 85.5098L582.071 83.9508ZM524.599 165.433C523.585 165.444 522.576 165.282 521.616 164.955C520.32 164.467 519.185 163.627 518.339 162.53C517.493 161.433 516.97 160.121 516.829 158.743C516.018 153.649 518.51 145.584 527.987 138.231C537.746 130.658 551.162 123.415 565.733 117.842L567.943 116.996L566.887 119.107C557.95 136.979 549.149 149.868 540.716 157.393C534.898 162.598 529.116 165.433 524.599 165.433ZM564.162 120.433C550.659 125.809 538.237 132.61 529.116 139.692C520.278 146.542 517.921 153.87 518.645 158.449C518.739 159.498 519.125 160.5 519.758 161.342C520.391 162.183 521.248 162.831 522.23 163.212C526.293 164.66 532.897 161.91 539.489 156.03C547.406 148.948 555.704 136.979 564.162 120.433ZM265.422 85.8904C264.24 85.8961 263.06 85.8304 261.886 85.6939L260.389 85.5098L261.248 84.2823C268.687 73.3819 282.324 63.4146 290.426 63.0095H290.757C293.384 63.0095 294.882 63.9179 295.667 66.2256C296.895 70.0922 295.667 73.7502 291.985 77.0891C285.651 82.7234 274.051 85.8904 265.422 85.8904ZM263.678 84C271.903 84.4419 284.399 81.3731 290.745 75.6774C295.459 71.4547 294.329 68.0545 293.912 66.7779C293.495 65.5013 292.844 64.7771 290.794 64.8139H290.524C283.38 65.2067 270.896 74.1798 263.74 84H263.678ZM323.09 78.4884L322.562 77.801C321.992 77.1027 321.572 76.2941 321.329 75.4259C321.087 74.5578 321.026 73.6487 321.151 72.7559C321.998 66.8638 330.062 60.7385 336.065 59.8793C336.377 59.8248 336.693 59.792 337.01 59.7811C338.913 59.6584 340.128 60.223 340.693 61.4628V61.6101C341.81 65.7223 328 75.1987 323.74 78.0097L323.09 78.4884ZM337.44 61.6101H337.096L336.335 61.6837C331.106 62.4447 323.679 68.0669 322.967 73.0138C322.821 74.0328 323.024 75.0711 323.544 75.9597C334.813 68.435 339.109 63.3408 338.986 62.1501C338.876 61.9415 338.618 61.6101 337.391 61.6101H337.44Z" fill="white" stroke="white"/>
</svg>
