<svg width="796" height="186" viewBox="0 0 796 186" fill="none" xmlns="http://www.w3.org/2000/svg">
<path d="M22.7385 186C21.4748 185.959 20.2348 185.646 19.1035 185.081C8.43831 180.348 1.6677 172.479 1.00862 164.031C0.776606 160.859 1.4307 157.685 2.89784 154.864C4.36499 152.042 6.58751 149.684 9.31717 148.053C13.3116 145.476 22.399 141.721 38.5167 145.117C41.6124 139.604 45.0276 133.273 48.7225 126.203C44.6985 123.072 41.0046 119.539 37.6979 115.658C17.0066 91.2914 17.7255 59.2357 39.3755 29.8964C57.3506 5.76983 90.3648 -4.95527 121.741 3.2134C155.055 11.9014 177.844 39.7228 182.717 77.6103C184.781 93.8162 183.351 110.276 178.523 125.883C188.609 122.515 198.418 118.368 207.862 113.48C208.18 113.329 208.516 113.215 208.861 113.141C217.311 103.796 228.375 97.2067 240.617 94.2274C251.861 91.3314 260.769 92.4497 267.1 97.5626C275.328 104.213 275.189 114.599 275.089 115.777C275.051 116.778 274.814 117.762 274.392 118.671C273.971 119.579 273.372 120.395 272.632 121.07C271.915 121.75 271.067 122.278 270.141 122.621C269.214 122.964 268.227 123.116 267.24 123.067C265.26 122.979 263.394 122.118 262.042 120.669C260.69 119.22 259.961 117.299 260.01 115.318C259.996 113.071 259.099 110.919 257.513 109.326C255.176 107.489 250.483 107.329 244.291 108.907C227.055 113.341 216.59 124.266 215.172 132.874C214.792 134.685 215.009 136.571 215.79 138.248C216.572 139.926 217.875 141.306 219.506 142.181C227.854 147.693 242.674 136.629 248.545 130.437C249.676 129.249 251.163 128.461 252.781 128.194C254.4 127.926 256.061 128.193 257.514 128.953C258.967 129.714 260.134 130.926 260.836 132.409C261.539 133.891 261.739 135.562 261.408 137.168C260.948 139.405 260.369 146.695 263.625 150.669C265.622 153.066 269.057 154.264 273.97 154.264C292.085 154.264 343.734 126.083 362.587 114.959L362.767 114.619C362.964 114.227 363.184 113.847 363.426 113.48C375.889 94.9661 406.826 82.6432 423.623 89.5137C428.336 91.5109 438.902 97.8621 435.606 115.478C435.213 117.45 434.058 119.187 432.391 120.311C431.576 120.867 430.659 121.256 429.693 121.456C428.728 121.656 427.732 121.664 426.763 121.478C425.794 121.293 424.872 120.918 424.048 120.375C423.225 119.832 422.517 119.131 421.965 118.314C421.402 117.498 421.008 116.577 420.806 115.607C420.604 114.636 420.597 113.635 420.787 112.662C422.205 105.192 419.329 104.014 417.951 103.435C406.766 98.821 383.758 110.305 376.009 121.849C370.696 129.838 371.595 136.848 378.825 144.218C391.467 157.08 440.579 134.631 471.417 114.579L471.676 114.439L471.916 114.259C478.866 110.505 486.156 106.271 493.626 101.957C515.755 60.2345 547.831 9.18511 575.273 1.95514C578.992 0.857314 582.917 0.6468 586.732 1.34051C590.548 2.03422 594.147 3.61283 597.242 5.9496C600.017 7.86018 602.239 10.4691 603.684 13.5128C605.129 16.5566 605.745 19.9276 605.471 23.2857C603.474 50.0486 542.039 90.6122 505.27 112.542L504.111 114.719C512.32 108.607 519.67 105.432 526.081 105.272C529.171 105.143 532.245 105.778 535.031 107.119C537.818 108.46 540.231 110.466 542.059 112.961C550.048 122.948 543.557 135.051 538.404 144.737C530.914 158.718 529.636 163.99 536.167 168.924C542.318 173.557 556.898 168.724 577.19 155.283C596.831 141.854 615.16 126.6 631.934 109.726C632.585 109.068 633.349 108.533 634.191 108.148C641.913 101.488 651.095 96.7392 660.994 94.2871C672.238 91.3911 681.146 92.5097 687.477 97.6226C695.706 104.273 695.566 114.659 695.466 115.837C695.428 116.838 695.191 117.822 694.77 118.731C694.348 119.639 693.75 120.455 693.009 121.13C692.29 121.807 691.442 122.333 690.516 122.676C689.59 123.019 688.604 123.173 687.617 123.127C685.637 123.039 683.771 122.178 682.419 120.729C681.068 119.28 680.338 117.359 680.387 115.378C680.373 113.131 679.476 110.979 677.89 109.386C675.554 107.549 670.86 107.389 664.689 108.967C647.432 113.401 636.967 124.326 635.549 132.934C635.171 134.747 635.391 136.634 636.176 138.312C636.961 139.99 638.269 141.368 639.903 142.241C650.309 149.091 668.184 131.236 668.943 130.477C670.076 129.295 671.563 128.514 673.18 128.251C674.796 127.989 676.454 128.259 677.904 129.021C679.353 129.783 680.516 130.995 681.216 132.476C681.916 133.956 682.116 135.624 681.785 137.228C681.326 139.464 680.766 146.754 684.002 150.729C685.999 153.126 689.435 154.324 694.348 154.324C712.762 154.324 765.149 125.604 783.764 114.539C785.484 113.537 787.531 113.255 789.459 113.755C791.386 114.254 793.038 115.495 794.055 117.207C795.072 118.92 795.371 120.964 794.888 122.896C794.404 124.828 793.176 126.49 791.473 127.521C784.243 131.795 720.172 169.463 694.367 169.463C684.641 169.463 677.211 166.367 672.258 160.256C670.1 157.53 668.51 154.4 667.585 151.049C657.599 157.619 643.918 163.032 631.635 154.903C626.458 151.647 622.694 146.564 621.089 140.663C597.222 161.634 564.787 185.74 541.799 185.74C536.518 185.888 531.336 184.288 527.059 181.187C509.184 167.745 519.07 149.051 525.062 137.887C528.178 132.055 532.033 124.805 530.195 122.508C529.79 121.87 529.224 121.35 528.555 121C527.885 120.649 527.135 120.48 526.38 120.511C515.136 120.79 493.506 144.258 481.722 160.815C480.629 162.311 479.024 163.352 477.212 163.74C475.401 164.129 473.51 163.838 471.899 162.923C470.288 162.008 469.07 160.532 468.476 158.777C467.883 157.022 467.956 155.11 468.68 153.405C470.398 149.411 474.812 139.644 481.223 126.522L479.525 127.461C465.58 136.159 451.045 143.874 436.026 150.549C417.771 158.538 402.512 162.712 390.669 162.712C380.982 162.712 373.372 159.976 368.06 154.584C362.572 149.311 358.995 142.361 357.894 134.831C334.067 148.153 293.523 169.104 274.01 169.104C264.284 169.104 256.854 166.008 251.901 159.896C249.742 157.171 248.153 154.04 247.227 150.689C237.241 157.26 223.56 162.672 211.277 154.544C207.741 152.359 204.843 149.281 202.872 145.621C200.902 141.961 199.93 137.847 200.053 133.693C190.673 137.731 181.006 141.069 171.133 143.679C165.195 155.379 156.496 165.456 145.788 173.038C129.81 183.983 102.348 192.511 63.4221 171.041C57.6528 167.819 51.6432 165.048 45.447 162.752C32.5649 183.324 26.5332 186 22.7385 186ZM26.3935 146.714C20.9845 146.471 15.6213 147.803 10.9549 150.549C8.67771 151.89 6.8203 153.84 5.59223 156.179C4.36415 158.519 3.81418 161.155 4.00446 163.791C4.56369 171.141 10.6753 178.071 20.3219 182.345C21.0721 182.733 21.8955 182.957 22.7385 183.004C27.1324 183.004 34.1627 175.335 43.6096 160.196L44.2487 159.177L45.3872 159.577C52.118 161.991 58.6378 164.957 64.8802 168.444C102.468 189.176 128.792 181.047 144.11 170.581C154.582 163.141 163.061 153.236 168.796 141.741L169.096 141.142L169.755 140.982C180.5 138.174 190.999 134.501 201.151 129.998L203.568 128.939L203.228 131.576C202.683 135.567 203.31 139.632 205.033 143.274C206.757 146.916 209.502 149.978 212.935 152.087C224.599 159.756 238.08 153.585 247.347 147.054L249.205 145.736L249.664 147.973C250.386 151.621 251.968 155.044 254.278 157.959C258.632 163.351 265.282 166.068 274.03 166.068C294.122 166.068 339.759 141.562 358.453 131.036L360.59 129.818V132.274C361.117 139.953 364.51 147.153 370.097 152.446C374.831 157.26 381.721 159.676 390.569 159.676C401.993 159.676 416.852 155.682 434.727 147.693C449.573 141 463.923 133.258 477.668 124.525L477.928 124.386L483.799 121.15L488.014 118.773L485.877 123.107C478.347 138.306 473.154 149.89 471.257 154.164C470.814 155.194 470.766 156.351 471.122 157.413C471.479 158.476 472.214 159.37 473.189 159.924C474.163 160.478 475.308 160.653 476.403 160.415C477.498 160.178 478.468 159.546 479.126 158.638C487.255 147.194 511.541 117.435 526.121 117.076C527.341 117.03 528.553 117.289 529.648 117.83C530.743 118.37 531.686 119.175 532.392 120.171C535.428 124.006 531.613 131.196 527.559 138.805C521.367 150.449 512.899 166.407 528.717 178.311C532.471 181.036 537.022 182.44 541.659 182.305C565.626 182.305 601.576 153.445 620.929 136.249L623.026 134.372L623.406 137.168C623.842 140.197 624.939 143.094 626.62 145.651C628.301 148.209 630.524 150.365 633.133 151.967C644.796 159.637 658.278 153.465 667.545 146.934L669.402 145.636L669.862 147.853C670.584 151.501 672.165 154.925 674.475 157.839C678.829 163.232 685.48 165.948 694.228 165.948C719.253 165.948 782.665 128.719 789.815 124.485C790.852 123.87 791.603 122.868 791.903 121.7C792.202 120.532 792.026 119.292 791.413 118.254C791.11 117.738 790.708 117.288 790.231 116.928C789.753 116.568 789.209 116.307 788.63 116.158C788.051 116.01 787.448 115.977 786.856 116.063C786.264 116.148 785.695 116.35 785.182 116.656C766.348 127.841 713.281 156.861 694.248 156.861C688.376 156.861 684.122 155.283 681.565 152.167C676.732 146.175 678.709 136.189 678.729 136.189C678.937 135.219 678.822 134.208 678.402 133.309C677.982 132.411 677.281 131.674 676.404 131.21C675.527 130.747 674.522 130.583 673.543 130.742C672.564 130.902 671.664 131.377 670.98 132.095C668.883 134.232 650.369 152.347 638.126 144.318C636.008 143.118 634.323 141.281 633.309 139.07C632.294 136.858 632.002 134.382 632.473 131.995C634.051 122.528 645.336 110.445 663.81 105.711C671.04 103.874 676.492 104.194 679.628 106.67C680.784 107.751 681.704 109.06 682.33 110.514C682.955 111.968 683.273 113.535 683.263 115.118C683.231 116.316 683.672 117.479 684.49 118.353C685.309 119.228 686.439 119.745 687.637 119.792C688.226 119.826 688.817 119.741 689.373 119.542C689.929 119.343 690.438 119.034 690.872 118.633C691.321 118.228 691.683 117.736 691.937 117.187C692.191 116.637 692.332 116.043 692.35 115.438C692.421 112.464 691.837 109.511 690.639 106.787C689.441 104.064 687.66 101.638 685.42 99.6798C679.868 95.186 671.839 94.2673 661.573 96.9036C652.064 99.2904 643.246 103.873 635.829 110.285L635.389 110.545C634.821 110.779 634.304 111.126 633.871 111.563C604.233 141.262 550.946 183.663 534.19 171.021C525.022 164.13 528.757 155.902 535.588 143.06C540.581 133.673 546.233 123.087 539.582 114.539C538.045 112.397 535.993 110.676 533.616 109.535C531.24 108.394 528.614 107.869 525.981 108.008C518.931 108.168 510.323 112.622 500.376 121.23L494.545 126.283L498.06 119.432C499.564 116.503 501.109 113.534 502.693 110.525L502.893 110.145L503.252 109.926C587.655 59.6153 601.576 33.7512 602.355 22.8064C602.584 19.951 602.054 17.0858 600.82 14.501C599.585 11.9161 597.69 9.70343 595.325 8.08677C592.6 6.03361 589.434 4.64331 586.078 4.02624C582.722 3.40917 579.269 3.58223 575.992 4.53164C549.508 11.502 517.892 62.1518 496.102 103.415L495.903 103.794L495.543 103.994C487.974 108.467 480.564 112.682 473.574 116.516L473.274 116.716L472.994 116.856C455.878 127.961 414.935 150.809 390.908 150.809C384.917 150.809 380.023 149.411 376.768 146.095C368.599 137.787 367.521 128.979 373.592 119.952C383.778 104.813 408.304 95.9849 419.169 100.459C421.965 101.597 425.5 104.153 423.803 113.001C423.581 114.19 423.84 115.418 424.522 116.417C424.847 116.929 425.274 117.371 425.775 117.714C426.276 118.057 426.842 118.295 427.438 118.414C428.014 118.532 428.608 118.533 429.184 118.416C429.761 118.299 430.308 118.068 430.793 117.735C431.307 117.406 431.749 116.976 432.092 116.471C432.436 115.967 432.673 115.398 432.79 114.799C435.746 99.3202 426.798 93.8079 422.684 92.1502C406.986 85.7191 377.906 97.4627 366.103 114.998C365.923 115.278 365.763 115.578 365.603 115.877L365.164 116.676L364.964 116.996L364.645 117.176C363.965 117.575 296.938 157.12 274.19 157.12C268.318 157.12 264.064 155.542 261.508 152.426C256.674 146.435 258.651 136.449 258.671 136.449C258.879 135.479 258.764 134.468 258.344 133.569C257.925 132.67 257.223 131.933 256.346 131.47C255.469 131.007 254.464 130.842 253.486 131.002C252.507 131.161 251.607 131.636 250.922 132.354C245.45 138.166 228.853 151.668 218.068 144.577C215.949 143.38 214.261 141.544 213.246 139.331C212.232 137.118 211.941 134.642 212.416 132.255C213.993 122.788 225.258 110.705 243.752 105.971C250.962 104.114 256.435 104.453 259.57 106.93C260.727 108.011 261.646 109.319 262.272 110.773C262.898 112.227 263.215 113.795 263.205 115.378C263.167 116.577 263.607 117.742 264.427 118.618C265.246 119.494 266.38 120.01 267.579 120.051C268.169 120.085 268.759 119.999 269.314 119.8C269.87 119.601 270.38 119.293 270.815 118.893C271.71 118.065 272.242 116.916 272.293 115.698C272.363 112.724 271.779 109.77 270.581 107.047C269.384 104.324 267.602 101.897 265.362 99.9394C259.81 95.4457 251.781 94.5269 241.395 97.1632C229.591 100.02 218.943 106.418 210.878 115.498L210.578 115.857L210.139 115.977L209.659 116.097C209.534 116.075 209.406 116.075 209.28 116.097C198.814 121.5 187.91 126.01 176.685 129.578L173.849 130.457L174.808 127.661C180.216 111.683 181.923 94.6846 179.801 77.9499C175.067 41.3007 153.118 14.418 121.022 6.04956C90.8242 -1.79956 59.0082 8.46606 41.832 31.614C20.961 59.755 20.282 90.4326 40.0146 113.66C43.4806 117.707 47.3708 121.369 51.6185 124.585L52.6171 125.344L52.038 126.462C47.8837 134.451 44.049 141.502 40.6737 147.533L40.1144 148.492L39.036 148.252C34.8929 147.267 30.652 146.751 26.3935 146.714ZM22.8983 173.537L21.9795 173.058C15.7282 169.783 13.2717 165.768 13.052 163.072C12.998 162.069 13.235 161.071 13.7346 160.199C14.2342 159.328 14.9751 158.619 15.868 158.159C19.503 155.822 25.6346 155.143 33.0443 156.341L35.2412 156.681L34.0828 158.678C29.4891 166.147 26.0939 170.821 23.6573 172.918L22.8983 173.537ZM17.4858 160.695C15.9479 161.694 16.0079 162.513 16.0478 162.852C16.0478 164.21 17.6456 167.126 22.439 169.883C25.4022 166.513 28.0371 162.868 30.3081 158.997C28.9819 158.846 27.6485 158.766 26.3136 158.758C23.2668 158.574 20.2311 159.267 17.5657 160.755L17.4858 160.695ZM109.119 172.179C96.7959 172.179 83.3745 168.285 69.1741 160.495C63.1984 157.159 56.9911 154.256 50.5999 151.807L48.9622 151.188L49.821 149.651C52.8767 144.318 56.1522 138.326 59.5475 131.875L60.2666 130.497L61.6247 131.276C86.5501 145.456 119.265 150.09 153.737 144.358L157.272 143.759L155.275 146.694C150.878 153.089 145.356 158.631 138.977 163.052C130.197 169.085 119.772 172.272 109.119 172.179ZM53.3761 149.631C59.3211 152.001 65.1053 154.756 70.6921 157.879C96.2167 171.86 119.245 172.878 137.32 160.575C142.413 157.069 146.922 152.783 150.681 147.873C117.487 152.726 86.0308 148.073 61.5647 134.631C58.7286 140.004 55.9725 145.037 53.3761 149.631ZM125.276 137.787C102.907 137.787 82.2161 132.834 65.719 123.227L64.5007 122.508L65.1398 121.25C75.126 101.597 86.7898 76.9513 99.8117 47.9914C100.271 46.8786 100.271 45.6291 99.8117 44.5163C99.4874 43.6813 98.924 42.9605 98.1921 42.4442C97.4603 41.9278 96.5924 41.6386 95.6971 41.6131C94.8017 41.5875 93.9188 41.8266 93.1586 42.3003C92.3984 42.7741 91.7948 43.4615 91.4233 44.2766C80.4186 68.7627 68.3553 94.0674 57.4704 115.518L56.6316 117.176L55.1736 115.997C52.1486 113.519 49.3483 110.779 46.8052 107.808C29.7489 87.7162 30.5477 61.8722 48.9822 37.0466C63.9814 16.8546 91.9426 7.9268 118.606 14.8772C147.386 22.3668 166.359 45.7944 170.534 79.1282C172.887 97.331 170.279 115.832 162.984 132.674L162.665 133.353L161.946 133.533C149.912 136.308 137.606 137.735 125.256 137.787H125.276ZM68.4552 121.33C92.8414 135.031 126.375 138.466 160.767 130.777C167.615 114.613 170.035 96.9167 167.777 79.5078C163.663 47.5521 145.508 24.9434 117.966 17.7733C92.5018 11.1425 65.7789 19.6106 51.5187 38.8439C33.963 62.4912 33.1241 86.9174 49.2018 105.851C51.2283 108.218 53.4245 110.434 55.7728 112.482C66.3981 91.431 78.0818 66.8453 88.787 43.0383C89.6149 41.2173 91.1301 39.798 93.0013 39.0907C94.8726 38.3834 96.9476 38.4455 98.7731 39.2635C99.6784 39.6693 100.495 40.2499 101.175 40.9721C101.855 41.6943 102.385 42.5438 102.736 43.4718C103.087 44.3998 103.251 45.3881 103.219 46.3796C103.186 47.3712 102.958 48.3465 102.548 49.2497C89.7656 77.5904 78.3015 101.857 68.4352 121.33H68.4552ZM511.521 94.467L514.517 89.2143C532.612 57.5782 558.456 18.7519 578.428 13.4792C580.377 12.8526 582.448 12.7069 584.466 13.0547C586.483 13.4025 588.386 14.2334 590.012 15.4764C591.156 16.1747 592.081 17.1787 592.685 18.375C593.288 19.5713 593.546 20.9124 593.427 22.2471C592.089 40.6615 544.775 73.3363 516.694 91.1715L511.521 94.467ZM579.147 16.3751C564.707 20.1898 544.375 43.9969 520.209 85.3795C563.409 57.4183 589.513 33.9307 590.372 22.1071C590.448 21.2711 590.28 20.431 589.886 19.6896C589.492 18.9481 588.89 18.3376 588.155 17.933C586.9 16.9471 585.42 16.2886 583.848 16.0167C582.275 15.7448 580.66 15.8679 579.147 16.3751Z" fill="#00747A"/>
</svg>
