<svg width="953" height="168" viewBox="0 0 953 168" fill="none" xmlns="http://www.w3.org/2000/svg">
<mask id="path-1-outside-1" maskUnits="userSpaceOnUse" x="-1" y="0" width="954" height="169" fill="black">
<rect fill="white" x="-1" width="954" height="169"/>
<path d="M949.468 78.9156C949.148 78.483 948.747 78.1176 948.286 77.8401C947.825 77.5626 947.314 77.3785 946.782 77.2983C946.25 77.2182 945.707 77.2435 945.185 77.3728C944.663 77.5022 944.171 77.733 943.738 78.0522C904.91 106.832 865.634 127.618 861.377 121.862C858.592 118.152 860.577 114.283 865.378 106.96C869.091 101.3 872.932 95.4801 871.268 89.1165C870.499 86.821 869.242 84.7184 867.585 82.9523C865.928 81.1863 863.909 79.7985 861.665 78.8836L861.249 78.6598C870.692 72.4241 877.958 66.6361 880.839 62.383C881.686 61.3554 882.259 60.1306 882.505 58.8224C882.751 57.5142 882.663 56.165 882.247 54.9002C881.22 52.5913 879.438 50.7002 877.192 49.5378C874.947 48.3755 872.372 48.0111 869.892 48.5047C860.289 49.4 848.253 57.7463 846.268 67.6914C845.615 71.0358 846.171 74.5032 847.837 77.4766C822.229 92.762 786.346 110.286 776.455 110.286C775.02 110.435 773.57 110.26 772.212 109.773C770.855 109.286 769.624 108.499 768.613 107.472C766.781 104.477 766.173 100.893 766.916 97.4627C767.089 96.5902 766.975 95.6853 766.591 94.8828C766.207 94.0804 765.573 93.4234 764.785 93.0099C763.997 92.5964 763.096 92.4485 762.217 92.5882C761.337 92.728 760.527 93.1478 759.906 93.7853C759.906 93.7853 746.846 107.12 738.908 101.94C737.625 101.242 736.602 100.149 735.991 98.824C735.38 97.4989 735.213 96.0122 735.515 94.5847C736.507 88.4769 743.901 80.6744 756.033 77.5725C760.61 76.3893 764.035 76.5492 765.892 78.0522C766.554 78.6833 767.08 79.4428 767.437 80.2841C767.795 81.1254 767.977 82.0308 767.972 82.9448C767.946 84.0229 768.344 85.0684 769.08 85.8574C769.815 86.6463 770.831 87.1161 771.91 87.1659C772.452 87.2054 772.997 87.133 773.51 86.9535C774.023 86.7739 774.494 86.491 774.893 86.1222C775.292 85.7534 775.611 85.3066 775.83 84.8095C776.049 84.3125 776.164 83.7758 776.167 83.2326C776.229 81.0518 775.804 78.8846 774.924 76.8879C774.043 74.8913 772.73 73.1153 771.077 71.6886C767.076 68.4908 761.315 67.7553 754.016 69.61C744.032 71.8601 735.35 77.9793 729.881 86.6223C717.781 98.8698 696.335 99.7972 676.969 98.646C677.669 96.1893 677.77 93.6008 677.263 91.0972C676.757 88.5936 675.657 86.2477 674.056 84.2559C662.308 68.6827 628.826 87.2618 612.405 97.8465C614.972 88.7237 619.016 80.0821 624.377 72.2642C677.161 56.2753 720.406 38.1438 715.413 14.9599C713.588 6.64565 707.378 2.16876 698.287 3.12809C677.705 4.95083 640.414 33.8588 619.063 65.325C607.316 68.8745 596.656 71.9125 588.206 74.2468C571.945 78.7877 563.334 81.2179 559.781 83.0727C559.227 83.3722 558.746 83.7919 558.375 84.3009C558.004 84.81 557.752 85.3955 557.636 86.0147C556.164 94.9045 546.657 106.225 537.342 110.286C535.91 111.181 534.267 111.683 532.579 111.741C530.89 111.799 529.216 111.411 527.726 110.617C526.236 109.822 524.982 108.649 524.09 107.215C523.199 105.781 522.702 104.138 522.65 102.451C521.978 96.0558 525.659 88.1572 532.253 81.6017C542.304 71.5607 549.154 77.2527 550.37 78.4039C551.133 79.1679 552.166 79.6002 553.246 79.607C554.326 79.6138 555.365 79.1944 556.137 78.44C556.909 77.6857 557.351 76.6574 557.368 75.5787C557.385 74.5001 556.976 73.4583 556.228 72.6799C552.824 69.4443 548.314 67.6261 543.616 67.5954C540.373 67.7508 537.195 68.5555 534.27 69.9617C531.344 71.368 528.732 73.3472 526.587 75.7818C525.273 77.1084 524.033 78.5069 522.874 79.9709C498.226 98.8698 454.533 128.161 441.921 126.371C441.457 126.354 441.015 126.172 440.673 125.859C437.92 122.15 439.872 118.312 444.706 110.957C448.387 105.329 452.228 99.4774 450.596 93.1458C449.622 89.8607 447.527 87.0205 444.674 85.1193C451.588 78.4999 456.454 71.8165 454.629 67.1797C453.465 64.5234 451.449 62.3301 448.898 60.9461C446.348 59.5621 443.409 59.0663 440.545 59.537C433.791 60.1766 425.82 64.7174 424.54 71.9764C423.9 75.1742 424.22 80.5465 430.942 86.1106C416.313 97.8784 394.259 112.013 376.525 117.673C366.922 120.711 360.328 120.871 357.543 117.897C353.254 113.452 354.118 104.658 358.152 93.7533C358.236 93.5456 358.332 93.3428 358.44 93.1458C358.44 93.1458 358.44 92.8899 358.44 92.794C364.521 76.805 377.069 56.5311 390.065 38.4316C434.879 49.0483 466.889 52.8537 489.776 52.8537C522.202 52.8537 536.03 45.179 541.888 38.7195C544.243 36.3026 545.879 33.2794 546.614 29.9873C547.349 26.6952 547.153 23.2638 546.049 20.0764C541.92 8.34049 529.82 8.7562 523.994 10.483C522.958 10.8138 522.097 11.542 521.598 12.5075C521.1 13.4731 521.006 14.5968 521.337 15.6314C521.668 16.6661 522.397 17.5271 523.364 18.0248C524.33 18.5226 525.455 18.6164 526.491 18.2856C527.451 17.9978 535.838 15.6314 538.302 22.6346C538.934 24.428 539.035 26.3655 538.592 28.2146C538.149 30.0637 537.182 31.7459 535.806 33.0594C515.383 55.4439 431.518 39.4549 395.347 31.0767C399.316 25.7684 403.285 20.7479 406.998 16.207C407.344 15.7949 407.605 15.3182 407.765 14.8047C407.925 14.2911 407.982 13.7509 407.931 13.2154C407.88 12.6799 407.724 12.1597 407.47 11.6852C407.217 11.2107 406.871 10.7911 406.454 10.451C405.612 9.75922 404.531 9.42816 403.445 9.53C402.36 9.63184 401.359 10.1584 400.66 10.9947C400.66 10.9947 394.643 18.3495 386.768 29.0621C272.461 1.30535 245.925 31.3645 245.029 32.6436C244.686 33.0636 244.43 33.5468 244.274 34.0658C244.119 34.5847 244.067 35.1292 244.122 35.6681C244.177 36.2071 244.338 36.73 244.595 37.2069C244.852 37.6838 245.201 38.1054 245.621 38.4476C246.042 38.7899 246.525 39.046 247.045 39.2015C247.564 39.357 248.109 39.4088 248.649 39.3539C249.188 39.2989 249.712 39.1384 250.189 38.8814C250.666 38.6244 251.088 38.276 251.431 37.856C251.655 37.6002 276.815 11.4743 381.615 36.2571C377.165 42.6527 372.428 49.528 367.915 56.755C361.098 67.2844 355.33 78.4553 350.693 90.1078C349.381 92.6661 340.61 107.728 313.594 108.591C307.755 108.769 301.937 109.357 296.181 110.35C294.171 103.028 290.501 96.2663 285.457 90.5875C282.832 87.6625 280.554 84.4433 278.671 80.9942C289.459 73.5753 297.685 66.5402 300.182 61.5516C300.984 60.2813 301.393 58.8031 301.359 57.3017C301.325 55.8002 300.849 54.3421 299.99 53.1095C298.448 51.4261 296.483 50.1855 294.299 49.5164C292.115 48.8472 289.792 48.774 287.57 49.3041C283.466 49.8313 279.574 51.4304 276.286 53.9401C272.999 56.4497 270.432 59.7811 268.844 63.5982C267.222 68.1548 267.121 73.1136 268.556 77.7324C244.933 92.8579 211.419 110.03 201.336 110.03C199.901 110.18 198.451 110.004 197.093 109.517C195.735 109.03 194.505 108.243 193.493 107.216C191.649 104.226 191.04 100.637 191.797 97.2069C191.97 96.3344 191.855 95.4294 191.471 94.627C191.087 93.8245 190.454 93.1677 189.666 92.7541C188.878 92.3406 187.977 92.1926 187.097 92.3324C186.218 92.4721 185.408 92.892 184.787 93.5295C184.787 93.5295 171.727 106.896 163.756 101.684C162.484 100.974 161.47 99.8801 160.861 98.5584C160.251 97.2367 160.077 95.7558 160.363 94.3289C161.388 88.2212 168.782 80.4185 180.913 77.3167C185.491 76.1335 188.884 76.2934 190.773 77.7964C191.436 78.4263 191.963 79.1856 192.321 80.0271C192.679 80.8687 192.86 81.7747 192.853 82.689C192.827 83.7671 193.224 84.8126 193.96 85.6016C194.696 86.3905 195.712 86.8602 196.79 86.91C197.332 86.9448 197.874 86.8692 198.385 86.6879C198.896 86.5067 199.365 86.2236 199.764 85.8557C200.162 85.4878 200.481 85.0429 200.702 84.548C200.922 84.0531 201.04 83.5185 201.048 82.9767C201.1 80.7972 200.672 78.6328 199.792 76.6376C198.912 74.6423 197.603 72.8652 195.958 71.4328C191.957 68.235 186.355 67.4995 178.865 69.3542C170.428 71.3961 162.853 76.0526 157.226 82.657C150.472 86.3025 143.814 89.82 137.444 93.2097C131.074 96.5993 124.64 100.053 118.558 103.219C120.159 95.8639 121.055 90.4276 121.311 88.5089C121.429 87.736 121.322 86.9456 121.004 86.2313C120.686 85.517 120.17 84.9086 119.517 84.478C118.864 84.0475 118.101 83.8128 117.318 83.8018C116.536 83.7907 115.767 84.0038 115.101 84.4158C85.6204 102.771 33.5725 127.746 19.3282 116.585C10.1414 109.39 8.79701 99.1256 15.295 86.0467C29.1552 58.226 70.2558 32.164 82.9636 35.4897C91.2542 37.6642 91.2541 47.0017 91.2541 47.4494C91.2453 48.5272 91.659 49.5656 92.4068 50.3425C93.1545 51.1194 94.177 51.5731 95.2554 51.6065C95.7957 51.6194 96.3332 51.5236 96.8358 51.3249C97.3384 51.1262 97.7959 50.8285 98.1811 50.4497C98.5663 50.0709 98.8713 49.6185 99.0781 49.1196C99.2848 48.6206 99.3891 48.0853 99.3846 47.5453C99.5619 43.0825 98.2449 38.688 95.642 35.0568C93.039 31.4255 89.2986 28.7647 85.0122 27.4952C65.9984 22.5706 22.0811 53.9409 7.86872 82.4332C-0.357791 98.9977 1.88288 113.42 14.2707 123.077C34.1807 138.65 90.1658 108.655 111.644 96.0877C110.908 99.8611 109.98 104.082 108.924 108.527C80.883 124.004 63.6297 135.932 63.5337 147.924C63.5337 153.648 67.2468 158.636 74.7371 162.762C77.2533 164.2 80.0965 164.971 82.9956 165C85.4095 164.997 87.7889 164.428 89.9417 163.337C102.746 157.101 111.132 133.214 116.062 113.963C124.032 109.582 132.611 105.073 141.285 100.469L152.105 94.7126C151.918 97.455 152.488 100.196 153.752 102.637C155.016 105.078 156.927 107.127 159.275 108.559C167.725 114.123 177.392 109.614 183.762 105.137C184.234 107.778 185.331 110.267 186.963 112.396C188.715 114.409 190.911 115.987 193.377 117.008C195.843 118.029 198.513 118.465 201.176 118.28C212.219 118.28 246.373 101.812 271.597 85.567C273.695 89.3057 276.184 92.8109 279.023 96.0238C283.148 100.618 286.179 106.083 287.89 112.013C267.532 117.385 255.048 128.002 251.143 138.075C249.72 141.542 249.398 145.362 250.223 149.018C251.048 152.673 252.978 155.987 255.752 158.508C258.765 161.494 262.841 163.161 267.084 163.145C273.342 162.808 279.231 160.084 283.537 155.534C288.35 150.684 292.07 144.863 294.449 138.46C296.828 132.058 297.812 125.221 297.333 118.408C302.724 117.428 308.181 116.85 313.658 116.681C325.375 116.737 336.823 113.174 346.436 106.48C345.993 109.473 346.211 112.527 347.073 115.427C347.936 118.327 349.423 121.003 351.429 123.269C364.778 137.083 401.013 116.138 415.961 106.48C423.601 101.575 430.954 96.2365 437.984 90.4915C439.929 91.3674 441.471 92.9431 442.305 94.9045C443.009 97.7505 440.193 102.036 437.472 106.193C432.926 113.132 427.261 121.766 433.727 130.464C434.528 131.517 435.539 132.393 436.696 133.037C437.853 133.68 439.13 134.078 440.449 134.205C441.078 134.24 441.708 134.24 442.337 134.205C458.726 134.205 494.897 109.838 514.679 95.576C514.188 97.9628 514.059 100.41 514.295 102.835C514.536 105.697 515.436 108.464 516.924 110.922C518.412 113.379 520.448 115.46 522.874 117.001C525.376 118.632 528.305 119.489 531.292 119.463C534.457 119.402 537.575 118.683 540.447 117.353C546.248 114.57 551.422 110.638 555.654 105.795C559.886 100.952 563.087 95.2987 565.063 89.1804C569.416 87.4856 579.179 84.7675 590.222 81.6657C597.681 79.5871 605.139 77.4766 612.437 75.2701C606.943 84.5715 603.658 95.0081 602.834 105.777C602.827 106.525 603.023 107.262 603.402 107.907C603.781 108.552 604.329 109.083 604.987 109.441C605.645 109.799 606.388 109.971 607.136 109.94C607.885 109.909 608.611 109.674 609.236 109.263C629.146 95.1283 660.452 79.3952 667.366 88.6688C668.372 89.8912 669 91.3808 669.17 92.9545C669.341 94.5282 669.047 96.1174 668.326 97.5267L661.924 96.983C645.919 95.576 636.156 94.7127 632.731 100.341C631.003 103.123 631.451 106.736 634.044 110.734C635.747 113.341 638.154 115.414 640.985 116.715C643.817 118.017 646.958 118.493 650.049 118.088C658.796 117.159 666.835 112.857 672.455 106.097C690.861 107.408 711.859 107.376 727.224 98.2621C727.624 100.316 728.445 102.266 729.635 103.988C730.825 105.711 732.358 107.169 734.138 108.271C742.621 113.835 752.256 109.327 758.658 104.85C759.127 107.491 760.224 109.98 761.859 112.109C763.611 114.121 765.806 115.7 768.272 116.721C770.738 117.742 773.408 118.177 776.071 117.993C787.05 117.993 825.814 99.989 853.214 83.2006C854.558 84.2005 855.982 85.0883 857.472 85.8548C860.673 87.5177 862.433 89.2124 862.881 90.9073C863.618 93.7213 860.801 98.0063 858.08 102.163C853.535 109.103 847.837 117.737 854.335 126.467C855.352 127.82 856.696 128.893 858.241 129.587C859.786 130.28 861.482 130.571 863.17 130.432C870.628 130.432 883.688 125.987 907.791 111.405C928.405 98.9337 947.963 84.5117 948.155 84.3519C949.024 83.781 949.642 82.9019 949.886 81.8925C950.129 80.8832 949.98 79.819 949.468 78.9156ZM699.088 11.0586H700.56C701.375 10.9425 702.205 10.9937 702.999 11.2092C703.794 11.4247 704.536 11.7998 705.18 12.3117C705.824 12.8236 706.357 13.4615 706.746 14.1863C707.135 14.911 707.372 15.7075 707.442 16.5268C710.867 32.3559 670.151 48.8884 632.475 61.008C652.769 35.1699 682.699 12.3697 698.992 11.0586H699.088ZM86.2606 155.982C85.0588 156.581 83.7216 156.858 82.3804 156.785C81.0392 156.712 79.74 156.292 78.6103 155.566C74.0009 153.008 71.6642 150.482 71.6642 147.988C71.6642 140.985 86.0366 130.944 105.883 119.623C101.209 135.868 94.4551 151.953 86.2606 155.982ZM276.463 66.4442C277.533 64.0074 279.221 61.8912 281.36 60.3044C283.498 58.7175 286.014 57.7146 288.658 57.3945C289.223 57.3515 289.79 57.3515 290.355 57.3945C291.241 57.3628 292.124 57.5152 292.948 57.8422C291.891 61.04 285.201 66.5402 275.822 72.9677C275.497 70.7948 275.717 68.5752 276.463 66.5082V66.4442ZM278.031 149.587C275.726 151.793 267.756 158.476 261.578 152.561C259.961 151.17 258.836 149.297 258.369 147.217C257.902 145.138 258.118 142.964 258.985 141.017C262.186 133.086 272.814 124.836 289.363 120.263C289.634 125.714 288.766 131.162 286.815 136.26C284.865 141.358 281.873 145.994 278.031 149.874V149.587ZM437.312 80.5145C433.759 78.0202 431.934 75.462 432.35 73.3834C432.894 70.6333 437.056 67.9152 441.217 67.5315H442.177C443.059 67.4379 443.949 67.5883 444.751 67.9661C445.552 68.344 446.234 68.9348 446.723 69.674C446.018 71.7525 442.529 75.7178 437.312 80.5145ZM649.696 110.19C648.104 110.458 646.468 110.27 644.978 109.648C643.488 109.025 642.205 107.993 641.278 106.672C640.92 106.102 640.609 105.503 640.35 104.882C643.551 103.858 653.378 104.722 661.476 105.457H661.892C658.289 108.121 654.03 109.757 649.568 110.19H649.696ZM854.943 72.9357C854.346 71.7388 854.166 70.3772 854.431 69.0664C855.615 63.1185 864.546 57.1067 870.724 56.5631H871.684C872.184 56.4898 872.693 56.5356 873.172 56.6968C873.65 56.858 874.084 57.1299 874.437 57.4904C872.868 60.5283 865.25 66.3163 854.815 72.9357H854.943Z"/>
</mask>
<path d="M949.468 78.9156C949.148 78.483 948.747 78.1176 948.286 77.8401C947.825 77.5626 947.314 77.3785 946.782 77.2983C946.25 77.2182 945.707 77.2435 945.185 77.3728C944.663 77.5022 944.171 77.733 943.738 78.0522C904.91 106.832 865.634 127.618 861.377 121.862C858.592 118.152 860.577 114.283 865.378 106.96C869.091 101.3 872.932 95.4801 871.268 89.1165C870.499 86.821 869.242 84.7184 867.585 82.9523C865.928 81.1863 863.909 79.7985 861.665 78.8836L861.249 78.6598C870.692 72.4241 877.958 66.6361 880.839 62.383C881.686 61.3554 882.259 60.1306 882.505 58.8224C882.751 57.5142 882.663 56.165 882.247 54.9002C881.22 52.5913 879.438 50.7002 877.192 49.5378C874.947 48.3755 872.372 48.0111 869.892 48.5047C860.289 49.4 848.253 57.7463 846.268 67.6914C845.615 71.0358 846.171 74.5032 847.837 77.4766C822.229 92.762 786.346 110.286 776.455 110.286C775.02 110.435 773.57 110.26 772.212 109.773C770.855 109.286 769.624 108.499 768.613 107.472C766.781 104.477 766.173 100.893 766.916 97.4627C767.089 96.5902 766.975 95.6853 766.591 94.8828C766.207 94.0804 765.573 93.4234 764.785 93.0099C763.997 92.5964 763.096 92.4485 762.217 92.5882C761.337 92.728 760.527 93.1478 759.906 93.7853C759.906 93.7853 746.846 107.12 738.908 101.94C737.625 101.242 736.602 100.149 735.991 98.824C735.38 97.4989 735.213 96.0122 735.515 94.5847C736.507 88.4769 743.901 80.6744 756.033 77.5725C760.61 76.3893 764.035 76.5492 765.892 78.0522C766.554 78.6833 767.08 79.4428 767.437 80.2841C767.795 81.1254 767.977 82.0308 767.972 82.9448C767.946 84.0229 768.344 85.0684 769.08 85.8574C769.815 86.6463 770.831 87.1161 771.91 87.1659C772.452 87.2054 772.997 87.133 773.51 86.9535C774.023 86.7739 774.494 86.491 774.893 86.1222C775.292 85.7534 775.611 85.3066 775.83 84.8095C776.049 84.3125 776.164 83.7758 776.167 83.2326C776.229 81.0518 775.804 78.8846 774.924 76.8879C774.043 74.8913 772.73 73.1153 771.077 71.6886C767.076 68.4908 761.315 67.7553 754.016 69.61C744.032 71.8601 735.35 77.9793 729.881 86.6223C717.781 98.8698 696.335 99.7972 676.969 98.646C677.669 96.1893 677.77 93.6008 677.263 91.0972C676.757 88.5936 675.657 86.2477 674.056 84.2559C662.308 68.6827 628.826 87.2618 612.405 97.8465C614.972 88.7237 619.016 80.0821 624.377 72.2642C677.161 56.2753 720.406 38.1438 715.413 14.9599C713.588 6.64565 707.378 2.16876 698.287 3.12809C677.705 4.95083 640.414 33.8588 619.063 65.325C607.316 68.8745 596.656 71.9125 588.206 74.2468C571.945 78.7877 563.334 81.2179 559.781 83.0727C559.227 83.3722 558.746 83.7919 558.375 84.3009C558.004 84.81 557.752 85.3955 557.636 86.0147C556.164 94.9045 546.657 106.225 537.342 110.286C535.91 111.181 534.267 111.683 532.579 111.741C530.89 111.799 529.216 111.411 527.726 110.617C526.236 109.822 524.982 108.649 524.09 107.215C523.199 105.781 522.702 104.138 522.65 102.451C521.978 96.0558 525.659 88.1572 532.253 81.6017C542.304 71.5607 549.154 77.2527 550.37 78.4039C551.133 79.1679 552.166 79.6002 553.246 79.607C554.326 79.6138 555.365 79.1944 556.137 78.44C556.909 77.6857 557.351 76.6574 557.368 75.5787C557.385 74.5001 556.976 73.4583 556.228 72.6799C552.824 69.4443 548.314 67.6261 543.616 67.5954C540.373 67.7508 537.195 68.5555 534.27 69.9617C531.344 71.368 528.732 73.3472 526.587 75.7818C525.273 77.1084 524.033 78.5069 522.874 79.9709C498.226 98.8698 454.533 128.161 441.921 126.371C441.457 126.354 441.015 126.172 440.673 125.859C437.92 122.15 439.872 118.312 444.706 110.957C448.387 105.329 452.228 99.4774 450.596 93.1458C449.622 89.8607 447.527 87.0205 444.674 85.1193C451.588 78.4999 456.454 71.8165 454.629 67.1797C453.465 64.5234 451.449 62.3301 448.898 60.9461C446.348 59.5621 443.409 59.0663 440.545 59.537C433.791 60.1766 425.82 64.7174 424.54 71.9764C423.9 75.1742 424.22 80.5465 430.942 86.1106C416.313 97.8784 394.259 112.013 376.525 117.673C366.922 120.711 360.328 120.871 357.543 117.897C353.254 113.452 354.118 104.658 358.152 93.7533C358.236 93.5456 358.332 93.3428 358.44 93.1458C358.44 93.1458 358.44 92.8899 358.44 92.794C364.521 76.805 377.069 56.5311 390.065 38.4316C434.879 49.0483 466.889 52.8537 489.776 52.8537C522.202 52.8537 536.03 45.179 541.888 38.7195C544.243 36.3026 545.879 33.2794 546.614 29.9873C547.349 26.6952 547.153 23.2638 546.049 20.0764C541.92 8.34049 529.82 8.7562 523.994 10.483C522.958 10.8138 522.097 11.542 521.598 12.5075C521.1 13.4731 521.006 14.5968 521.337 15.6314C521.668 16.6661 522.397 17.5271 523.364 18.0248C524.33 18.5226 525.455 18.6164 526.491 18.2856C527.451 17.9978 535.838 15.6314 538.302 22.6346C538.934 24.428 539.035 26.3655 538.592 28.2146C538.149 30.0637 537.182 31.7459 535.806 33.0594C515.383 55.4439 431.518 39.4549 395.347 31.0767C399.316 25.7684 403.285 20.7479 406.998 16.207C407.344 15.7949 407.605 15.3182 407.765 14.8047C407.925 14.2911 407.982 13.7509 407.931 13.2154C407.88 12.6799 407.724 12.1597 407.47 11.6852C407.217 11.2107 406.871 10.7911 406.454 10.451C405.612 9.75922 404.531 9.42816 403.445 9.53C402.36 9.63184 401.359 10.1584 400.66 10.9947C400.66 10.9947 394.643 18.3495 386.768 29.0621C272.461 1.30535 245.925 31.3645 245.029 32.6436C244.686 33.0636 244.43 33.5468 244.274 34.0658C244.119 34.5847 244.067 35.1292 244.122 35.6681C244.177 36.2071 244.338 36.73 244.595 37.2069C244.852 37.6838 245.201 38.1054 245.621 38.4476C246.042 38.7899 246.525 39.046 247.045 39.2015C247.564 39.357 248.109 39.4088 248.649 39.3539C249.188 39.2989 249.712 39.1384 250.189 38.8814C250.666 38.6244 251.088 38.276 251.431 37.856C251.655 37.6002 276.815 11.4743 381.615 36.2571C377.165 42.6527 372.428 49.528 367.915 56.755C361.098 67.2844 355.33 78.4553 350.693 90.1078C349.381 92.6661 340.61 107.728 313.594 108.591C307.755 108.769 301.937 109.357 296.181 110.35C294.171 103.028 290.501 96.2663 285.457 90.5875C282.832 87.6625 280.554 84.4433 278.671 80.9942C289.459 73.5753 297.685 66.5402 300.182 61.5516C300.984 60.2813 301.393 58.8031 301.359 57.3017C301.325 55.8002 300.849 54.3421 299.99 53.1095C298.448 51.4261 296.483 50.1855 294.299 49.5164C292.115 48.8472 289.792 48.774 287.57 49.3041C283.466 49.8313 279.574 51.4304 276.286 53.9401C272.999 56.4497 270.432 59.7811 268.844 63.5982C267.222 68.1548 267.121 73.1136 268.556 77.7324C244.933 92.8579 211.419 110.03 201.336 110.03C199.901 110.18 198.451 110.004 197.093 109.517C195.735 109.03 194.505 108.243 193.493 107.216C191.649 104.226 191.04 100.637 191.797 97.2069C191.97 96.3344 191.855 95.4294 191.471 94.627C191.087 93.8245 190.454 93.1677 189.666 92.7541C188.878 92.3406 187.977 92.1926 187.097 92.3324C186.218 92.4721 185.408 92.892 184.787 93.5295C184.787 93.5295 171.727 106.896 163.756 101.684C162.484 100.974 161.47 99.8801 160.861 98.5584C160.251 97.2367 160.077 95.7558 160.363 94.3289C161.388 88.2212 168.782 80.4185 180.913 77.3167C185.491 76.1335 188.884 76.2934 190.773 77.7964C191.436 78.4263 191.963 79.1856 192.321 80.0271C192.679 80.8687 192.86 81.7747 192.853 82.689C192.827 83.7671 193.224 84.8126 193.96 85.6016C194.696 86.3905 195.712 86.8602 196.79 86.91C197.332 86.9448 197.874 86.8692 198.385 86.6879C198.896 86.5067 199.365 86.2236 199.764 85.8557C200.162 85.4878 200.481 85.0429 200.702 84.548C200.922 84.0531 201.04 83.5185 201.048 82.9767C201.1 80.7972 200.672 78.6328 199.792 76.6376C198.912 74.6423 197.603 72.8652 195.958 71.4328C191.957 68.235 186.355 67.4995 178.865 69.3542C170.428 71.3961 162.853 76.0526 157.226 82.657C150.472 86.3025 143.814 89.82 137.444 93.2097C131.074 96.5993 124.64 100.053 118.558 103.219C120.159 95.8639 121.055 90.4276 121.311 88.5089C121.429 87.736 121.322 86.9456 121.004 86.2313C120.686 85.517 120.17 84.9086 119.517 84.478C118.864 84.0475 118.101 83.8128 117.318 83.8018C116.536 83.7907 115.767 84.0038 115.101 84.4158C85.6204 102.771 33.5725 127.746 19.3282 116.585C10.1414 109.39 8.79701 99.1256 15.295 86.0467C29.1552 58.226 70.2558 32.164 82.9636 35.4897C91.2542 37.6642 91.2541 47.0017 91.2541 47.4494C91.2453 48.5272 91.659 49.5656 92.4068 50.3425C93.1545 51.1194 94.177 51.5731 95.2554 51.6065C95.7957 51.6194 96.3332 51.5236 96.8358 51.3249C97.3384 51.1262 97.7959 50.8285 98.1811 50.4497C98.5663 50.0709 98.8713 49.6185 99.0781 49.1196C99.2848 48.6206 99.3891 48.0853 99.3846 47.5453C99.5619 43.0825 98.2449 38.688 95.642 35.0568C93.039 31.4255 89.2986 28.7647 85.0122 27.4952C65.9984 22.5706 22.0811 53.9409 7.86872 82.4332C-0.357791 98.9977 1.88288 113.42 14.2707 123.077C34.1807 138.65 90.1658 108.655 111.644 96.0877C110.908 99.8611 109.98 104.082 108.924 108.527C80.883 124.004 63.6297 135.932 63.5337 147.924C63.5337 153.648 67.2468 158.636 74.7371 162.762C77.2533 164.2 80.0965 164.971 82.9956 165C85.4095 164.997 87.7889 164.428 89.9417 163.337C102.746 157.101 111.132 133.214 116.062 113.963C124.032 109.582 132.611 105.073 141.285 100.469L152.105 94.7126C151.918 97.455 152.488 100.196 153.752 102.637C155.016 105.078 156.927 107.127 159.275 108.559C167.725 114.123 177.392 109.614 183.762 105.137C184.234 107.778 185.331 110.267 186.963 112.396C188.715 114.409 190.911 115.987 193.377 117.008C195.843 118.029 198.513 118.465 201.176 118.28C212.219 118.28 246.373 101.812 271.597 85.567C273.695 89.3057 276.184 92.8109 279.023 96.0238C283.148 100.618 286.179 106.083 287.89 112.013C267.532 117.385 255.048 128.002 251.143 138.075C249.72 141.542 249.398 145.362 250.223 149.018C251.048 152.673 252.978 155.987 255.752 158.508C258.765 161.494 262.841 163.161 267.084 163.145C273.342 162.808 279.231 160.084 283.537 155.534C288.35 150.684 292.07 144.863 294.449 138.46C296.828 132.058 297.812 125.221 297.333 118.408C302.724 117.428 308.181 116.85 313.658 116.681C325.375 116.737 336.823 113.174 346.436 106.48C345.993 109.473 346.211 112.527 347.073 115.427C347.936 118.327 349.423 121.003 351.429 123.269C364.778 137.083 401.013 116.138 415.961 106.48C423.601 101.575 430.954 96.2365 437.984 90.4915C439.929 91.3674 441.471 92.9431 442.305 94.9045C443.009 97.7505 440.193 102.036 437.472 106.193C432.926 113.132 427.261 121.766 433.727 130.464C434.528 131.517 435.539 132.393 436.696 133.037C437.853 133.68 439.13 134.078 440.449 134.205C441.078 134.24 441.708 134.24 442.337 134.205C458.726 134.205 494.897 109.838 514.679 95.576C514.188 97.9628 514.059 100.41 514.295 102.835C514.536 105.697 515.436 108.464 516.924 110.922C518.412 113.379 520.448 115.46 522.874 117.001C525.376 118.632 528.305 119.489 531.292 119.463C534.457 119.402 537.575 118.683 540.447 117.353C546.248 114.57 551.422 110.638 555.654 105.795C559.886 100.952 563.087 95.2987 565.063 89.1804C569.416 87.4856 579.179 84.7675 590.222 81.6657C597.681 79.5871 605.139 77.4766 612.437 75.2701C606.943 84.5715 603.658 95.0081 602.834 105.777C602.827 106.525 603.023 107.262 603.402 107.907C603.781 108.552 604.329 109.083 604.987 109.441C605.645 109.799 606.388 109.971 607.136 109.94C607.885 109.909 608.611 109.674 609.236 109.263C629.146 95.1283 660.452 79.3952 667.366 88.6688C668.372 89.8912 669 91.3808 669.17 92.9545C669.341 94.5282 669.047 96.1174 668.326 97.5267L661.924 96.983C645.919 95.576 636.156 94.7127 632.731 100.341C631.003 103.123 631.451 106.736 634.044 110.734C635.747 113.341 638.154 115.414 640.985 116.715C643.817 118.017 646.958 118.493 650.049 118.088C658.796 117.159 666.835 112.857 672.455 106.097C690.861 107.408 711.859 107.376 727.224 98.2621C727.624 100.316 728.445 102.266 729.635 103.988C730.825 105.711 732.358 107.169 734.138 108.271C742.621 113.835 752.256 109.327 758.658 104.85C759.127 107.491 760.224 109.98 761.859 112.109C763.611 114.121 765.806 115.7 768.272 116.721C770.738 117.742 773.408 118.177 776.071 117.993C787.05 117.993 825.814 99.989 853.214 83.2006C854.558 84.2005 855.982 85.0883 857.472 85.8548C860.673 87.5177 862.433 89.2124 862.881 90.9073C863.618 93.7213 860.801 98.0063 858.08 102.163C853.535 109.103 847.837 117.737 854.335 126.467C855.352 127.82 856.696 128.893 858.241 129.587C859.786 130.28 861.482 130.571 863.17 130.432C870.628 130.432 883.688 125.987 907.791 111.405C928.405 98.9337 947.963 84.5117 948.155 84.3519C949.024 83.781 949.642 82.9019 949.886 81.8925C950.129 80.8832 949.98 79.819 949.468 78.9156ZM699.088 11.0586H700.56C701.375 10.9425 702.205 10.9937 702.999 11.2092C703.794 11.4247 704.536 11.7998 705.18 12.3117C705.824 12.8236 706.357 13.4615 706.746 14.1863C707.135 14.911 707.372 15.7075 707.442 16.5268C710.867 32.3559 670.151 48.8884 632.475 61.008C652.769 35.1699 682.699 12.3697 698.992 11.0586H699.088ZM86.2606 155.982C85.0588 156.581 83.7216 156.858 82.3804 156.785C81.0392 156.712 79.74 156.292 78.6103 155.566C74.0009 153.008 71.6642 150.482 71.6642 147.988C71.6642 140.985 86.0366 130.944 105.883 119.623C101.209 135.868 94.4551 151.953 86.2606 155.982ZM276.463 66.4442C277.533 64.0074 279.221 61.8912 281.36 60.3044C283.498 58.7175 286.014 57.7146 288.658 57.3945C289.223 57.3515 289.79 57.3515 290.355 57.3945C291.241 57.3628 292.124 57.5152 292.948 57.8422C291.891 61.04 285.201 66.5402 275.822 72.9677C275.497 70.7948 275.717 68.5752 276.463 66.5082V66.4442ZM278.031 149.587C275.726 151.793 267.756 158.476 261.578 152.561C259.961 151.17 258.836 149.297 258.369 147.217C257.902 145.138 258.118 142.964 258.985 141.017C262.186 133.086 272.814 124.836 289.363 120.263C289.634 125.714 288.766 131.162 286.815 136.26C284.865 141.358 281.873 145.994 278.031 149.874V149.587ZM437.312 80.5145C433.759 78.0202 431.934 75.462 432.35 73.3834C432.894 70.6333 437.056 67.9152 441.217 67.5315H442.177C443.059 67.4379 443.949 67.5883 444.751 67.9661C445.552 68.344 446.234 68.9348 446.723 69.674C446.018 71.7525 442.529 75.7178 437.312 80.5145ZM649.696 110.19C648.104 110.458 646.468 110.27 644.978 109.648C643.488 109.025 642.205 107.993 641.278 106.672C640.92 106.102 640.609 105.503 640.35 104.882C643.551 103.858 653.378 104.722 661.476 105.457H661.892C658.289 108.121 654.03 109.757 649.568 110.19H649.696ZM854.943 72.9357C854.346 71.7388 854.166 70.3772 854.431 69.0664C855.615 63.1185 864.546 57.1067 870.724 56.5631H871.684C872.184 56.4898 872.693 56.5356 873.172 56.6968C873.65 56.858 874.084 57.1299 874.437 57.4904C872.868 60.5283 865.25 66.3163 854.815 72.9357H854.943Z" stroke="white" stroke-width="6" stroke-miterlimit="10" mask="url(#path-1-outside-1)"/>
</svg>
