<svg width="22" height="22" viewBox="0 0 22 22" fill="none" xmlns="http://www.w3.org/2000/svg">
<path fill-rule="evenodd" clip-rule="evenodd" d="M6.73077 0H14.8077C18.5244 0 21.5385 2.98255 21.5385 6.66045V14.653C21.5385 18.3309 18.5244 21.3134 14.8077 21.3134H6.73077C3.01404 21.3134 0 18.3309 0 14.653V6.66045C0 2.98255 3.01404 0 6.73077 0ZM14.808 19.3156C17.4061 19.3156 19.5195 17.2243 19.5195 14.6533V6.66078C19.5195 4.08985 17.4061 1.99847 14.808 1.99847H6.73107C4.13299 1.99847 2.01953 4.08985 2.01953 6.66078V14.6533C2.01953 17.2243 4.13299 19.3156 6.73107 19.3156H14.808Z" fill="white"/>
<path fill-rule="evenodd" clip-rule="evenodd" d="M5.38477 10.655C5.38477 7.71243 7.79573 5.32666 10.7694 5.32666C13.743 5.32666 16.154 7.71243 16.154 10.655C16.154 13.5976 13.743 15.9834 10.7694 15.9834C7.79573 15.9834 5.38477 13.5976 5.38477 10.655ZM7.4043 10.6558C7.4043 12.4914 8.91468 13.986 10.7697 13.986C12.6247 13.986 14.1351 12.4914 14.1351 10.6558C14.1351 8.81881 12.6247 7.32553 10.7697 7.32553C8.91468 7.32553 7.4043 8.81881 7.4043 10.6558Z" fill="white"/>
<path fill-rule="evenodd" clip-rule="evenodd" d="M16.8274 5.32818C17.1991 5.32818 17.5005 5.02998 17.5005 4.66214C17.5005 4.29429 17.1991 3.99609 16.8274 3.99609C16.4556 3.99609 16.1543 4.29429 16.1543 4.66214C16.1543 5.02998 16.4556 5.32818 16.8274 5.32818Z" fill="white"/>
</svg>
