<svg width="110" height="24" viewBox="0 0 110 24" fill="none" xmlns="http://www.w3.org/2000/svg">
<path d="M1.92789 8.93056H1.17622V8.41488H0.966455V8.93056H0.243916V8.29834H0.0283203V9.16655H2.14349V8.29834H1.92789V8.93056Z" fill="white"/>
<path d="M1.63688 7.08935C1.54855 7.08717 1.46088 7.1051 1.3805 7.14179C1.31085 7.17673 1.24618 7.22082 1.18821 7.2729C1.13227 7.32602 1.08064 7.3835 1.0338 7.4448C0.988272 7.50367 0.939646 7.56007 0.888125 7.61378C0.841015 7.66466 0.787091 7.70878 0.727886 7.74488C0.665028 7.78095 0.593479 7.79909 0.521029 7.79732C0.444189 7.80224 0.367748 7.78288 0.302519 7.74197C0.275186 7.72032 0.25368 7.6922 0.239945 7.66015C0.226211 7.62811 0.220681 7.59314 0.223857 7.55842C0.220709 7.52328 0.226234 7.48789 0.23995 7.45538C0.253665 7.42287 0.27515 7.39423 0.302519 7.37196C0.368728 7.33082 0.446164 7.31146 0.523943 7.3166H0.593865V7.09226H0.535597C0.398197 7.08516 0.262499 7.12526 0.15102 7.20589C0.101565 7.25085 0.0630052 7.3065 0.0382689 7.36859C0.0135326 7.43068 0.00327106 7.4976 0.00826122 7.56425C0.00284002 7.63008 0.0129312 7.69626 0.0377243 7.75748C0.0625174 7.81871 0.101321 7.87327 0.15102 7.91677C0.262286 7.99784 0.39814 8.03798 0.535597 8.0304C0.623929 8.03258 0.7116 8.01465 0.79198 7.97796C0.862518 7.94455 0.927399 7.90031 0.98427 7.84685C1.04022 7.79478 1.09186 7.73827 1.13868 7.67787C1.18421 7.619 1.23283 7.56259 1.28436 7.50889C1.33147 7.45801 1.38539 7.41389 1.4446 7.37779C1.50643 7.34182 1.57702 7.32366 1.64854 7.32534C1.72669 7.32046 1.80434 7.34089 1.86996 7.38361C1.897 7.4068 1.9182 7.43603 1.93187 7.46892C1.94553 7.50182 1.95127 7.53747 1.94862 7.57299C1.95127 7.60808 1.94552 7.6433 1.93184 7.67573C1.91816 7.70816 1.89695 7.73686 1.86996 7.75945C1.80525 7.80441 1.72715 7.82599 1.64854 7.82063H1.51452V8.03914H1.63688C1.77428 8.04624 1.90998 8.00615 2.02146 7.92551C2.07163 7.88111 2.11068 7.82556 2.13547 7.76332C2.16026 7.70108 2.17011 7.6339 2.16422 7.56716C2.17011 7.49999 2.16028 7.43237 2.13551 7.36966C2.11073 7.30696 2.07168 7.25088 2.02146 7.20589C1.91114 7.12267 1.77484 7.08137 1.63688 7.08935Z" fill="white"/>
<path d="M0.0283203 5.85107V6.86496H0.243916V6.47455H2.14349V6.23856H0.243916V5.85107H0.0283203Z" fill="white"/>
<path d="M2.14362 5.54541H1.84937V5.77266H2.14362V5.54541Z" fill="white"/>
<path d="M2.13794 3.7884H1.92234V4.4818H1.89029C1.81196 4.48325 1.73462 4.46417 1.66595 4.42645C1.59422 4.3893 1.52681 4.34436 1.46493 4.29243C1.40083 4.23998 1.33382 4.18172 1.26972 4.12053C1.20541 4.05788 1.13624 4.0004 1.06287 3.94864C0.989693 3.89493 0.910494 3.84995 0.826879 3.81462C0.734076 3.77844 0.635128 3.76063 0.535533 3.76218C0.395791 3.75431 0.257695 3.79554 0.145131 3.87872C0.0520217 3.97536 0 4.10433 0 4.23853C0 4.37273 0.0520217 4.5017 0.145131 4.59834C0.259026 4.68107 0.397865 4.72221 0.538447 4.71488H0.71034V4.49346H0.520965C0.442031 4.49701 0.363858 4.4767 0.29663 4.43519C0.267557 4.41346 0.24453 4.38464 0.229741 4.3515C0.214952 4.31835 0.208892 4.28197 0.212139 4.24581C0.208309 4.20961 0.214106 4.17303 0.228941 4.13977C0.243776 4.10652 0.267125 4.07777 0.29663 4.05644C0.371572 4.01288 0.457773 3.9926 0.544273 3.99817C0.634449 3.99639 0.723931 4.01428 0.806485 4.05061C0.88328 4.08515 0.954868 4.13026 1.01917 4.18463C1.08618 4.23707 1.15027 4.29534 1.21437 4.35652C1.2783 4.41846 1.34645 4.47589 1.41831 4.52842C1.49149 4.58213 1.57069 4.62711 1.6543 4.66244C1.7473 4.69793 1.84611 4.71571 1.94565 4.71488H2.13794V3.7884Z" fill="white"/>
<path d="M1.63095 2.51216H0.541319C0.401224 2.50513 0.263094 2.54739 0.150917 2.63161C0.101609 2.67855 0.0632513 2.73578 0.0385766 2.79923C0.013902 2.86268 0.00351717 2.93078 0.00815772 2.9987C0.00357316 3.06575 0.0140104 3.13297 0.0387078 3.19547C0.0634052 3.25797 0.101739 3.31417 0.150917 3.35997C0.262387 3.44557 0.401037 3.48799 0.541319 3.47943H1.63095C1.77025 3.48728 1.90775 3.4449 2.01844 3.35997C2.06866 3.31484 2.10789 3.25883 2.13313 3.19622C2.15838 3.1336 2.16898 3.06604 2.16412 2.9987C2.16901 2.9305 2.15846 2.86207 2.13324 2.79851C2.10802 2.73495 2.06878 2.6779 2.01844 2.63161C1.90775 2.54668 1.77025 2.5043 1.63095 2.51216ZM1.86986 3.18516C1.80423 3.23075 1.72533 3.25329 1.64552 3.24926H0.526753C0.446944 3.25329 0.368047 3.23075 0.302416 3.18516C0.274516 3.1632 0.252473 3.1347 0.238241 3.10217C0.22401 3.06964 0.218032 3.0341 0.220839 2.9987C0.217566 2.96241 0.2233 2.92588 0.23753 2.89234C0.25176 2.8588 0.274047 2.82928 0.302416 2.80642C0.368765 2.76288 0.447604 2.7424 0.526753 2.74815H1.64552C1.72467 2.7424 1.80351 2.76288 1.86986 2.80642C1.89731 2.82991 1.91877 2.8596 1.93245 2.89304C1.94613 2.92649 1.95164 2.96271 1.94852 2.9987C1.95117 3.0338 1.94542 3.06902 1.93174 3.10145C1.91806 3.13388 1.89685 3.16257 1.86986 3.18516Z" fill="white"/>
<path d="M1.63103 1.25674H0.541398C0.400751 1.249 0.262062 1.29247 0.150995 1.37911C0.0592606 1.47819 0.00830078 1.60825 0.00830078 1.74329C0.00830078 1.87832 0.0592606 2.00838 0.150995 2.10747C0.263172 2.19169 0.401303 2.23395 0.541398 2.22692H1.63103C1.77033 2.23478 1.90782 2.19239 2.01852 2.10747C2.1122 2.00937 2.16447 1.87894 2.16447 1.74329C2.16447 1.60764 2.1122 1.47721 2.01852 1.37911C1.90823 1.29314 1.7707 1.24971 1.63103 1.25674ZM1.86994 1.93267C1.80394 1.97723 1.72508 1.99873 1.6456 1.99385H0.526832C0.447354 1.99873 0.368487 1.97723 0.302494 1.93267C0.274555 1.91008 0.25253 1.88104 0.238318 1.84805C0.224105 1.81506 0.218133 1.7791 0.220918 1.74329C0.217613 1.70742 0.22335 1.6713 0.2376 1.63822C0.25185 1.60514 0.27416 1.57615 0.302494 1.55391C0.368487 1.50935 0.447354 1.48784 0.526832 1.49273H1.6456C1.72508 1.48784 1.80394 1.50935 1.86994 1.55391C1.89735 1.5768 1.91882 1.60597 1.93251 1.63895C1.94621 1.67192 1.95173 1.70772 1.9486 1.74329C1.95125 1.77881 1.94551 1.81446 1.93184 1.84735C1.91818 1.88025 1.89697 1.90947 1.86994 1.93267Z" fill="white"/>
<path d="M1.61598 0.000880983H0.540909C0.400262 -0.00685944 0.261573 0.03661 0.150507 0.123246C0.0587723 0.222335 0.0078125 0.352395 0.0078125 0.487428C0.0078125 0.622462 0.0587723 0.752521 0.150507 0.851611C0.262684 0.935827 0.400814 0.978092 0.540909 0.971064H0.861392C0.989449 0.977818 1.11651 0.945287 1.22557 0.877831C1.2701 0.843988 1.30561 0.799713 1.32899 0.748904C1.35236 0.698096 1.36287 0.642315 1.35959 0.586485C1.36565 0.513167 1.34719 0.439916 1.30712 0.378222C1.26704 0.316528 1.20762 0.269883 1.13817 0.245611H1.61015C1.69895 0.239164 1.78754 0.260551 1.86362 0.306795C1.88943 0.33203 1.90994 0.362165 1.92394 0.395436C1.93795 0.428707 1.94516 0.464441 1.94516 0.500538C1.94516 0.536636 1.93795 0.57237 1.92394 0.605641C1.90994 0.638912 1.88943 0.669051 1.86362 0.694286C1.79891 0.73925 1.72081 0.760827 1.6422 0.755466H1.58684V0.976892H1.62763C1.7663 0.983352 1.90302 0.942232 2.01512 0.860351C2.06516 0.815216 2.10408 0.759122 2.12885 0.696451C2.15361 0.63378 2.16355 0.566232 2.15788 0.499085C2.16377 0.430087 2.15339 0.36067 2.12759 0.29641C2.10178 0.23215 2.06126 0.174837 2.00929 0.129074C1.89671 0.042616 1.75789 -0.00263076 1.61598 0.000880983ZM1.14982 0.487428C1.15261 0.523243 1.14664 0.5592 1.13242 0.592193C1.11821 0.625185 1.09619 0.654225 1.06825 0.676806C1.00225 0.721366 0.923388 0.742872 0.84391 0.737986H0.526343C0.446865 0.742872 0.367998 0.721366 0.302006 0.676806C0.274969 0.653614 0.253765 0.62439 0.240101 0.591495C0.226437 0.558599 0.220696 0.52295 0.223343 0.487428C0.220214 0.451859 0.225735 0.416061 0.239432 0.383086C0.253129 0.350111 0.274596 0.320939 0.302006 0.298055C0.367998 0.253495 0.446865 0.231984 0.526343 0.23687H0.84391C0.923388 0.231984 1.00225 0.253495 1.06825 0.298055C1.09702 0.320568 1.11961 0.350024 1.13388 0.383659C1.14815 0.417295 1.15363 0.454002 1.14982 0.49034V0.487428Z" fill="white"/>
<path d="M15.6154 0.000488281H7.74902V23.7801H15.6154H15.7173C18.8699 23.7666 21.8881 22.5013 24.1077 20.2625C26.3274 18.0237 27.5668 14.9949 27.5533 11.8422C27.5397 8.68964 26.2744 5.67153 24.0356 3.45186C21.7968 1.23219 18.768 -0.0072057 15.6154 0.00631645V0.000488281ZM15.6154 19.6751L11.8541 19.6547V4.13469L15.6154 4.10264C17.6808 4.10264 19.6616 4.92313 21.1221 6.3836C22.5826 7.84407 23.403 9.8249 23.403 11.8903C23.403 13.9557 22.5826 15.9366 21.1221 17.397C19.6616 18.8575 17.6808 19.678 15.6154 19.678V19.6751Z" fill="white"/>
<path d="M67.108 0.000597751H59.2417V23.7803H67.108H67.21C70.3634 23.7667 73.3822 22.5011 75.6025 20.2618C77.8227 18.0224 79.0624 14.9928 79.0489 11.8394C79.0353 8.68606 77.7697 5.66721 75.5304 3.44699C73.291 1.22678 70.2614 -0.0129244 67.108 0.000597751ZM67.108 19.6752L63.3468 19.6548V4.1348L67.108 4.10275C69.1735 4.10275 71.1543 4.92324 72.6148 6.38371C74.0752 7.84418 74.8957 9.82501 74.8957 11.8904C74.8957 13.9558 74.0752 15.9367 72.6148 17.3971C71.1543 18.8576 69.1735 19.6781 67.108 19.6781V19.6752Z" fill="white"/>
<path d="M110 0.00683594H105.88V23.7632H110V0.00683594Z" fill="white"/>
<path d="M51.4743 0.000488281L51.4539 11.6223C51.4741 12.6809 51.2831 13.733 50.892 14.717C50.5008 15.7009 49.9175 16.597 49.1759 17.3529C48.4344 18.1087 47.5496 18.7091 46.5733 19.119C45.597 19.5289 44.5488 19.74 43.4899 19.74C42.4311 19.74 41.3829 19.5289 40.4066 19.119C39.4303 18.7091 38.5455 18.1087 37.804 17.3529C37.0624 16.597 36.479 15.7009 36.0879 14.717C35.6968 13.733 35.5058 12.6809 35.526 11.6223V0.000488281H31.3423V11.6223C31.3173 13.2334 31.6131 14.8333 32.2124 16.329C32.8117 17.8247 33.7025 19.1862 34.833 20.3344C35.9634 21.4825 37.311 22.3943 38.7973 23.0167C40.2835 23.639 41.8787 23.9595 43.4899 23.9595C45.1012 23.9595 46.6964 23.639 48.1826 23.0167C49.6689 22.3943 51.0164 21.4825 52.1469 20.3344C53.2774 19.1862 54.1682 17.8247 54.7675 16.329C55.3668 14.8333 55.6626 13.2334 55.6376 11.6223L55.5939 0.000488281H51.4743Z" fill="white"/>
<path d="M96.0882 0.108285C96.0882 5.4574 91.9598 9.65278 86.6719 9.70522V0.000488281H82.5493V23.7597H86.669V14.0696C89.185 14.1102 91.5838 15.14 93.3461 16.9361C95.1084 18.7323 96.0925 21.1502 96.0852 23.6665V23.7685H100.455V23.6665C100.465 21.32 99.8808 19.0091 98.7565 16.9494C97.6321 14.8897 96.0045 13.1482 94.0254 11.8874C96.0047 10.6268 97.6324 8.88535 98.7568 6.82561C99.8812 4.76587 100.466 2.45491 100.455 0.108285V0.000488281H96.0852L96.0882 0.108285Z" fill="white"/>
</svg>
