<svg width="24" height="15" viewBox="0 0 24 15" fill="none" xmlns="http://www.w3.org/2000/svg">
<path fill-rule="evenodd" clip-rule="evenodd" d="M19.8193 9.50579C20.5832 10.2865 21.3894 11.021 22.0746 11.8803C22.3772 12.2622 22.6637 12.6563 22.8829 13.0995C23.1935 13.7296 22.9122 14.4229 22.3725 14.4605L19.0177 14.4589C18.1524 14.5341 17.4621 14.1694 16.8817 13.5502C16.4172 13.0549 15.9871 12.5279 15.5405 12.0159C15.3574 11.8067 15.1657 11.6098 14.9368 11.4542C14.4788 11.143 14.0812 11.2383 13.8195 11.7383C13.553 12.2468 13.4925 12.8099 13.4663 13.3767C13.4304 14.2036 13.1916 14.421 12.3981 14.4588C10.7022 14.5426 9.0927 14.274 7.59754 13.3785C6.27935 12.589 5.25716 11.4745 4.36745 10.2128C2.63517 7.75596 1.30858 5.05629 0.116302 2.28098C-0.152072 1.6557 0.0441958 1.32006 0.703288 1.30818C1.79774 1.28592 2.89204 1.28751 3.98778 1.30659C4.43259 1.31341 4.72707 1.58047 4.89882 2.02034C5.49096 3.54437 6.2155 4.99435 7.12495 6.33837C7.36715 6.69619 7.61411 7.05401 7.96579 7.30587C8.35484 7.58473 8.65106 7.4923 8.83408 7.03865C8.95022 6.751 9.00107 6.44117 9.02725 6.13308C9.11396 5.07316 9.12538 4.01505 8.9733 2.95885C8.87993 2.29967 8.52523 1.87295 7.89686 1.74821C7.5762 1.68461 7.62394 1.55972 7.7792 1.36813C8.04886 1.03771 8.30248 0.832031 8.80805 0.832031H12.5996C13.1965 0.955345 13.329 1.23603 13.4107 1.86471L13.414 6.27319C13.4075 6.51657 13.5301 7.23879 13.9489 7.39988C14.2841 7.51456 14.505 7.23387 14.7061 7.0114C15.6139 6.00288 16.2618 4.81101 16.8406 3.57684C17.0975 3.03417 17.3184 2.47059 17.5324 1.90748C17.691 1.48962 17.9399 1.28402 18.3895 1.29313L22.0386 1.29654C22.1468 1.29654 22.2563 1.2982 22.3611 1.31697C22.976 1.42666 23.1445 1.70354 22.9546 2.33207C22.6553 3.31818 22.0731 4.13995 21.5038 4.96553C20.8953 5.84694 20.2444 6.69817 19.641 7.58481C19.0865 8.39446 19.1306 8.80258 19.8193 9.50579Z" fill="white"/>
</svg>
